<svg width="70" height="71" viewBox="0 0 70 71" fill="none" xmlns="http://www.w3.org/2000/svg">
<g clip-path="url(#clip0_17_3529)" filter="url(#filter0_d_17_3529)">
<path d="M4 31.5C4 39.7217 7.26606 47.6067 13.0797 53.4203C18.8933 59.2339 26.7783 62.5 35 62.5C43.2217 62.5 51.1067 59.2339 56.9203 53.4203C62.7339 47.6067 66 39.7217 66 31.5C66 23.2783 62.7339 15.3933 56.9203 9.57969C51.1067 3.76606 43.2217 0.5 35 0.5C26.7783 0.5 18.8933 3.76606 13.0797 9.57969C7.26606 15.3933 4 23.2783 4 31.5Z" fill="#D9EDFF"/>
<path d="M44.5246 56.8883C44.5246 57.7408 38.9818 58.4383 32.144 58.4383C25.3062 58.4383 19.7634 57.7454 19.7634 56.8883C19.7634 56.0311 25.3062 55.3383 32.144 55.3383C38.9818 55.3383 44.5246 56.0334 44.5246 56.8883Z" fill="#B0D9FF"/>
<path d="M49.4667 41.0209C49.4668 41.2701 49.4178 41.5168 49.3225 41.747C49.2272 41.9772 49.0875 42.1864 48.9114 42.3627C48.7352 42.5389 48.5261 42.6787 48.2959 42.774C48.0657 42.8694 47.819 42.9185 47.5698 42.9185H20.5333V9.71553L22.0387 8.96247C22.2962 8.83405 22.58 8.76704 22.8677 8.76672H47.5698C47.819 8.76672 48.0657 8.81581 48.2959 8.91119C48.5261 9.00656 48.7352 9.14635 48.9114 9.32257C49.0875 9.49879 49.2272 9.70799 49.3225 9.93821C49.4178 10.1684 49.4668 10.4152 49.4667 10.6643V41.0209Z" fill="white" stroke="#020064" stroke-width="0.5" stroke-linecap="round" stroke-linejoin="round"/>
<path d="M47.5691 42.7235C47.5689 42.9883 47.5134 43.2501 47.4061 43.4921C47.2988 43.7341 47.142 43.951 46.9459 44.1288C46.7498 44.3067 46.5186 44.4415 46.2673 44.5247C46.0159 44.6079 45.75 44.6376 45.4865 44.6119L23.3783 42.4441V10.6636H45.6715C45.9207 10.6636 46.1675 10.7127 46.3978 10.8081C46.6281 10.9035 46.8373 11.0434 47.0136 11.2196C47.1898 11.3959 47.3295 11.6052 47.4249 11.8355C47.5202 12.0659 47.5692 12.3127 47.5691 12.562V42.7235Z" fill="white" stroke="#020064" stroke-width="0.5" stroke-linecap="round" stroke-linejoin="round"/>
<path d="M45.6721 47.0131C45.6722 47.1512 45.6421 47.2876 45.584 47.4128C45.5258 47.538 45.4411 47.649 45.3356 47.7381C45.2301 47.8271 45.1064 47.8921 44.9732 47.9283C44.84 47.9646 44.7005 47.9714 44.5644 47.9481L21.3047 43.9978C21.0896 43.9605 20.8946 43.8484 20.7541 43.6812C20.6136 43.5141 20.5368 43.3027 20.5371 43.0843V9.86292L44.0961 13.8639C44.538 13.9388 44.9391 14.1678 45.2283 14.5102C45.5175 14.8526 45.6761 15.2864 45.6759 15.7346L45.6721 47.0131Z" fill="white"/>
<path d="M45.6721 47.0131C45.6722 47.1512 45.6421 47.2876 45.584 47.4128C45.5258 47.538 45.4411 47.649 45.3356 47.7381C45.2301 47.8271 45.1064 47.8921 44.9732 47.9283C44.84 47.9646 44.7005 47.9714 44.5644 47.9481L21.3047 43.9978C21.0896 43.9605 20.8946 43.8484 20.7541 43.6812C20.6136 43.5141 20.5368 43.3027 20.5371 43.0843V9.86292L44.0961 13.8639C44.538 13.9388 44.9391 14.1678 45.2283 14.5102C45.5175 14.8526 45.6761 15.2864 45.6759 15.7346L45.6721 47.0131Z" stroke="#020064" stroke-width="0.5" stroke-linecap="round" stroke-linejoin="round"/>
<path d="M30.6138 38.8975C30.509 38.8951 30.4047 38.9143 30.3076 38.9537C30.2104 38.9932 30.1223 39.0521 30.0488 39.1269C29.9753 39.2017 29.9179 39.2908 29.8801 39.3887C29.8424 39.4865 29.8251 39.5911 29.8293 39.6959V40.6447L30.8441 40.8236C30.9301 40.4933 31.1254 40.2018 31.3982 39.9968C31.671 39.7917 32.0052 39.6851 32.3464 39.6944C32.4568 39.6944 32.567 39.7042 32.6757 39.7235C33.1141 39.8129 33.5185 40.0242 33.8423 40.3329C34.1661 40.6417 34.3964 41.0355 34.5066 41.4692L35.5214 41.648V40.6992C35.5112 40.4338 35.4121 40.1796 35.24 39.9773C35.0679 39.775 34.8329 39.6365 34.5726 39.5838L30.7781 38.9144C30.7239 38.9047 30.6689 38.8998 30.6138 38.8998V38.8975Z" fill="#020064"/>
<path d="M34.7585 43.5364V43.571H34.727L34.7577 43.5364M29.8294 41.5935V42.5415C29.8398 42.8069 29.9389 43.061 30.111 43.2633C30.283 43.4655 30.518 43.6042 30.7782 43.6569L34.5727 44.3263C34.6269 44.336 34.6819 44.3409 34.737 44.3409C34.8417 44.3433 34.9457 44.3242 35.0427 44.2849C35.1397 44.2456 35.2277 44.1869 35.3012 44.1123C35.3746 44.0377 35.4321 43.9489 35.47 43.8514C35.5079 43.7538 35.5254 43.6495 35.5215 43.5449V42.5968L34.5067 42.418C34.4208 42.7481 34.2256 43.0395 33.953 43.2445C33.6803 43.4496 33.3462 43.5562 33.0052 43.5472C32.8948 43.5472 32.7846 43.5374 32.6759 43.518C32.2376 43.4281 31.8334 43.2168 31.5095 42.9081C31.1856 42.5994 30.9551 42.2058 30.8443 41.7724L29.8294 41.5935Z" fill="#020064"/>
<path d="M32.5099 41.4246H32.5421C32.6021 41.4402 32.6579 41.469 32.7055 41.5088C32.753 41.5487 32.7911 41.5986 32.8169 41.6549C32.8432 41.702 32.858 41.7546 32.8599 41.8084H32.8085C32.7484 41.7929 32.6926 41.7642 32.6451 41.7244C32.5975 41.6845 32.5595 41.6346 32.5337 41.5782C32.5079 41.531 32.4934 41.4784 32.4915 41.4246C32.4976 41.4235 32.5038 41.4235 32.5099 41.4246ZM32.5099 40.657C32.3809 40.6537 32.2533 40.6838 32.1394 40.7443C32.0255 40.8048 31.9292 40.8937 31.8597 41.0024C31.7709 41.136 31.7246 41.2934 31.7269 41.4538C31.7287 41.6281 31.7744 41.7992 31.8597 41.9512C31.9401 42.1088 32.0554 42.246 32.1968 42.3524C32.3382 42.4588 32.502 42.5317 32.6757 42.5653C32.7304 42.5753 32.7859 42.5804 32.8415 42.5807C32.9703 42.5839 33.0978 42.5538 33.2116 42.4933C33.3254 42.4327 33.4216 42.3439 33.4909 42.2353C33.5797 42.1016 33.626 41.9443 33.6237 41.7839C33.6219 41.6096 33.5763 41.4385 33.4909 41.2864C33.4105 41.129 33.2953 40.9918 33.1541 40.8855C33.0128 40.7791 32.8493 40.7062 32.6757 40.6723C32.621 40.6624 32.5655 40.6573 32.5099 40.657Z" fill="#020064"/>
<path d="M23.4182 12.9104C23.413 12.8723 23.4176 12.8335 23.4317 12.7977C23.4457 12.7619 23.4686 12.7303 23.4983 12.7058C23.528 12.6813 23.5635 12.6649 23.6013 12.658C23.6391 12.6511 23.6781 12.6539 23.7145 12.6663L24.3885 12.7845C24.6525 12.8201 24.8952 12.9483 25.0733 13.1463C25.2515 13.3443 25.3535 13.5992 25.3611 13.8654C25.3664 13.9831 25.3433 14.1004 25.2937 14.2073C25.2441 14.3142 25.1695 14.4076 25.0763 14.4796C24.983 14.5517 24.8738 14.6002 24.7578 14.6212C24.6419 14.6421 24.5226 14.6349 24.41 14.6L23.9893 14.5233V15.1466C23.9944 15.1837 23.9901 15.2215 23.9768 15.2566C23.9636 15.2916 23.9418 15.3228 23.9134 15.3473C23.885 15.3718 23.851 15.3888 23.8144 15.3968C23.7778 15.4047 23.7398 15.4034 23.7038 15.393C23.6217 15.3806 23.5472 15.3383 23.4945 15.2742C23.4418 15.2102 23.4146 15.1289 23.4182 15.046V12.9104ZM23.9893 14.0228L24.3732 14.0918C24.4225 14.1062 24.4747 14.1081 24.525 14.0975C24.5753 14.0868 24.6221 14.0639 24.6615 14.0308C24.7008 13.9977 24.7314 13.9554 24.7504 13.9077C24.7695 13.8599 24.7765 13.8082 24.7708 13.7571C24.7728 13.6446 24.7344 13.535 24.6626 13.4482C24.5908 13.3615 24.4903 13.3033 24.3793 13.2843L23.9955 13.2167L23.9893 14.0228Z" fill="#020064"/>
<path d="M26.1814 13.371C26.2082 13.2881 26.2641 13.2178 26.3387 13.1729C26.4134 13.128 26.5017 13.1117 26.5875 13.1269C26.6844 13.1481 26.7737 13.1956 26.8456 13.2641C26.9175 13.3326 26.9692 13.4194 26.9951 13.5153L27.7405 15.7154C27.7577 15.7627 27.7678 15.8124 27.7704 15.8627C27.771 15.895 27.764 15.9269 27.75 15.956C27.7361 15.9851 27.7156 16.0106 27.6901 16.0304C27.6647 16.0502 27.6349 16.0638 27.6033 16.0702C27.5717 16.0765 27.539 16.0754 27.5079 16.0669C27.4424 16.0575 27.3812 16.0291 27.3318 15.9852C27.2823 15.9412 27.2469 15.8837 27.23 15.8198L27.1164 15.4421L26.0593 15.254L25.945 15.5872C25.9379 15.6157 25.9251 15.6425 25.9073 15.6658C25.8895 15.6892 25.8672 15.7087 25.8415 15.7231C25.8159 15.7375 25.7877 15.7464 25.7584 15.7495C25.7292 15.7525 25.6997 15.7495 25.6717 15.7407C25.5961 15.7273 25.5272 15.6888 25.4762 15.6314C25.4252 15.574 25.3951 15.5011 25.3907 15.4244C25.3909 15.3829 25.3996 15.3419 25.416 15.3039L26.1814 13.371ZM26.2236 14.7596L26.9452 14.8863L26.5913 13.7187H26.5844L26.2236 14.7596Z" fill="#020064"/>
<path d="M29.8532 14.0827C29.8571 14.1164 29.853 14.1506 29.8412 14.1824C29.8294 14.2142 29.8103 14.2428 29.7854 14.2659C29.7605 14.289 29.7306 14.3059 29.698 14.3153C29.6653 14.3247 29.631 14.3262 29.5976 14.3199C29.4441 14.293 29.3205 14.1571 29.0925 14.1165C28.9275 14.0873 28.7801 14.1487 28.7801 14.3091C28.7801 14.7014 30.0505 14.6738 30.0505 15.6556C30.0514 15.7733 30.0243 15.8896 29.9713 15.9948C29.9184 16.0999 29.8412 16.191 29.746 16.2604C29.6509 16.3298 29.5406 16.3755 29.4243 16.3938C29.308 16.4121 29.189 16.4025 29.0772 16.3657C28.7839 16.315 28.156 16.1354 28.156 15.7776C28.1523 15.7445 28.1566 15.711 28.1685 15.68C28.1805 15.6489 28.1997 15.6211 28.2246 15.599C28.2495 15.5769 28.2793 15.5611 28.3116 15.5529C28.3439 15.5447 28.3776 15.5444 28.4101 15.552C28.5889 15.5834 28.8023 15.7692 29.0488 15.813C29.2952 15.8567 29.438 15.74 29.438 15.5535C29.438 15.106 28.1667 15.1512 28.1667 14.2684C28.1652 14.1539 28.191 14.0406 28.242 13.9379C28.293 13.8353 28.3676 13.7462 28.4598 13.6781C28.552 13.61 28.659 13.5648 28.7721 13.5463C28.8852 13.5277 29.0011 13.5363 29.1102 13.5714C29.3205 13.6083 29.8532 13.7825 29.8532 14.0827Z" fill="#020064"/>
<path d="M32.198 14.4964C32.2017 14.5301 32.1974 14.5641 32.1856 14.5959C32.1738 14.6276 32.1547 14.6562 32.1298 14.6792C32.105 14.7023 32.0751 14.7192 32.0425 14.7286C32.01 14.7381 31.9757 14.7398 31.9424 14.7336C31.7888 14.7059 31.6653 14.5701 31.4373 14.5301C31.2738 14.501 31.1248 14.5624 31.1248 14.7221C31.1248 15.1151 32.3953 15.0875 32.3953 16.0685C32.3963 16.1863 32.3693 16.3027 32.3164 16.4079C32.2635 16.5132 32.1862 16.6044 32.0911 16.6738C31.996 16.7433 31.8856 16.7891 31.7693 16.8075C31.6529 16.8258 31.5338 16.8162 31.4219 16.7794C31.1287 16.7279 30.5007 16.5491 30.5007 16.1898C30.4973 16.1567 30.5018 16.1233 30.5139 16.0924C30.526 16.0614 30.5453 16.0338 30.5702 16.0119C30.5952 15.9899 30.6251 15.9743 30.6573 15.9662C30.6896 15.9582 30.7233 15.958 30.7556 15.9656C30.9337 15.9971 31.1471 16.1829 31.3943 16.2266C31.6415 16.2704 31.7827 16.1537 31.7827 15.9672C31.7827 15.5181 30.5123 15.5649 30.5123 14.6821C30.5108 14.5676 30.5366 14.4544 30.5875 14.3519C30.6384 14.2493 30.713 14.1603 30.8051 14.0922C30.8972 14.0241 31.0041 13.9789 31.1171 13.9603C31.2301 13.9417 31.3459 13.9502 31.4549 13.9851C31.6653 14.0258 32.198 14.1962 32.198 14.4964Z" fill="#020064"/>
<path d="M32.9411 14.59C32.937 14.5521 32.9423 14.5137 32.9567 14.4783C32.9711 14.4429 32.9941 14.4117 33.0235 14.3874C33.053 14.3631 33.088 14.3466 33.1255 14.3392C33.163 14.3318 33.2017 14.3339 33.2382 14.3451L33.9114 14.4641C34.1755 14.4994 34.4185 14.6275 34.5969 14.8255C34.7752 15.0236 34.8773 15.2786 34.8848 15.545C34.8898 15.6627 34.8664 15.7798 34.8167 15.8866C34.767 15.9934 34.6923 16.0867 34.599 16.1586C34.5057 16.2306 34.3965 16.279 34.2806 16.2999C34.1647 16.3209 34.0454 16.3136 33.9329 16.2788L33.5114 16.2021V16.8262C33.5166 16.8633 33.5123 16.9011 33.4991 16.9362C33.4858 16.9712 33.464 17.0024 33.4356 17.0268C33.4072 17.0512 33.3731 17.0682 33.3365 17.076C33.2998 17.0839 33.2618 17.0824 33.2259 17.0718C33.1441 17.0594 33.0697 17.0172 33.0172 16.9533C32.9646 16.8894 32.9375 16.8083 32.9411 16.7256V14.59ZM33.5114 15.7023L33.8999 15.7699C33.9488 15.7832 34.0002 15.7844 34.0496 15.7733C34.099 15.7622 34.145 15.7392 34.1835 15.7063C34.2221 15.6734 34.252 15.6315 34.2706 15.5844C34.2893 15.5373 34.2961 15.4863 34.2906 15.436C34.2929 15.3236 34.2547 15.2141 34.1829 15.1276C34.1112 15.0411 34.0107 14.9832 33.8999 14.9646L33.5114 14.8956V15.7023Z" fill="#020064"/>
<path d="M35.2518 16.0539C35.2325 15.8835 35.2542 15.7109 35.3153 15.5506C35.3763 15.3903 35.4748 15.247 35.6025 15.1325C35.7303 15.0181 35.8835 14.9359 36.0496 14.8928C36.2156 14.8497 36.3895 14.8469 36.5568 14.8848C36.9288 14.9648 37.2619 15.1709 37.4997 15.4681C37.7374 15.7653 37.8653 16.1354 37.8618 16.516C37.881 16.6864 37.8593 16.859 37.7983 17.0193C37.7372 17.1796 37.6387 17.3229 37.511 17.4374C37.3832 17.5518 37.23 17.634 37.064 17.6771C36.898 17.7202 36.724 17.723 36.5568 17.6851C36.1827 17.6089 35.8473 17.4039 35.6089 17.1058C35.3704 16.8077 35.2441 16.4355 35.2518 16.0539ZM37.2745 16.4108C37.2932 16.1866 37.2315 15.9631 37.1004 15.7803C36.9693 15.5974 36.7774 15.4672 36.5591 15.4129C36.0847 15.3292 35.8451 15.7015 35.8451 16.1621C35.8241 16.3865 35.8848 16.611 36.0159 16.7943C36.147 16.9776 36.3399 17.1075 36.5591 17.1601C37.0427 17.2453 37.2745 16.8753 37.2745 16.4108Z" fill="#020064"/>
<path d="M38.4045 15.5526C38.3985 15.5147 38.4024 15.4759 38.4159 15.4399C38.4294 15.404 38.452 15.3722 38.4814 15.3475C38.5109 15.3229 38.5463 15.3064 38.584 15.2996C38.6218 15.2927 38.6607 15.2958 38.6969 15.3085L39.3671 15.426C39.6282 15.4379 39.874 15.5524 40.051 15.7446C40.2281 15.9368 40.3222 16.1911 40.3128 16.4523C40.3128 16.8707 39.9981 17.0557 39.6097 17.0472L40.256 17.854C40.3019 17.9036 40.3291 17.9677 40.3328 18.0352C40.3342 18.0712 40.3274 18.107 40.313 18.14C40.2985 18.173 40.2767 18.2023 40.2493 18.2256C40.2219 18.249 40.1895 18.2658 40.1547 18.2748C40.1198 18.2839 40.0833 18.2849 40.048 18.2778C39.9596 18.2609 39.8808 18.2116 39.8269 18.1396L38.9825 16.9674H38.9725V17.7934C38.9776 17.8304 38.9733 17.8681 38.9601 17.9031C38.9469 17.938 38.9252 17.9691 38.8969 17.9936C38.8686 18.018 38.8346 18.0349 38.7981 18.0429C38.7615 18.0508 38.7236 18.0495 38.6877 18.039C38.6058 18.0264 38.5314 17.9841 38.4787 17.9201C38.426 17.8561 38.3988 17.7749 38.4022 17.692L38.4045 15.5526ZM38.9725 16.559L39.3648 16.6273C39.5736 16.6649 39.7187 16.5644 39.7187 16.3517C39.7201 16.2532 39.6846 16.1577 39.6191 16.0841C39.5536 16.0104 39.4628 15.9641 39.3648 15.9541L38.9725 15.885V16.559Z" fill="#020064"/>
<path d="M41.209 16.2758L40.7944 16.2028C40.7212 16.1922 40.6545 16.155 40.6068 16.0984C40.5591 16.0418 40.5338 15.9697 40.5357 15.8958C40.5334 15.8629 40.5389 15.83 40.5518 15.7996C40.5647 15.7693 40.5845 15.7425 40.6097 15.7213C40.635 15.7001 40.6649 15.6852 40.697 15.6777C40.7291 15.6703 40.7625 15.6706 40.7944 15.6785L42.1938 15.9257C42.2659 15.9389 42.3311 15.9768 42.3783 16.0328C42.4255 16.0888 42.4518 16.1595 42.4525 16.2328C42.4563 16.266 42.4518 16.2997 42.4394 16.3307C42.427 16.3618 42.4071 16.3893 42.3815 16.4108C42.3559 16.4323 42.3253 16.4472 42.2926 16.454C42.2599 16.4609 42.2259 16.4595 42.1938 16.45L41.7793 16.3733V18.2862C41.7846 18.3234 41.7804 18.3613 41.7673 18.3965C41.7541 18.4316 41.7323 18.4629 41.7038 18.4874C41.6754 18.5119 41.6413 18.5289 41.6046 18.5368C41.5679 18.5447 41.5298 18.5433 41.4938 18.5326C41.412 18.5201 41.3378 18.4778 41.2852 18.4139C41.2327 18.3501 41.2055 18.2691 41.209 18.1864V16.2758Z" fill="#020064"/>
<path d="M34.3834 30.2999L34.0042 26.0586L32.8658 25.8575C30.9682 25.5236 30.9682 26.282 30.9682 26.282C30.9682 26.282 29.4506 26.0141 29.4506 26.7733V27.9117C29.4506 27.9117 29.8298 27.5993 31.3482 27.8672L30.9682 29.6973L30.2098 32.219L28.3121 33.4012L29.0698 34.6755L31.3466 34.3177L30.2082 36.0142C30.4672 36.4086 30.8018 36.7477 31.1926 37.012C31.5834 37.2763 32.0227 37.4605 32.4851 37.5541C32.8959 37.6284 33.3188 37.6 33.716 37.4715C34.1132 37.3429 34.4725 37.1181 34.7619 36.8172L33.6227 34.7192L35.9018 35.8784L36.661 34.8735L35.1434 33.088L34.3834 30.2999Z" stroke="#020064" stroke-linecap="round" stroke-linejoin="round"/>
<path d="M31.0214 34.8021C31.4475 35.1405 31.9506 35.3684 32.486 35.4654C32.9792 35.5375 33.4826 35.4891 33.953 35.3241" stroke="#020064" stroke-linecap="round" stroke-linejoin="round"/>
<path d="M35.1422 22.8422C35.1539 23.1748 35.089 23.5056 34.9524 23.8091C34.8157 24.1125 34.6111 24.3804 34.3542 24.592C34.0974 24.8036 33.7953 24.9533 33.4714 25.0294C33.1474 25.1055 32.8103 25.106 32.4861 25.0308C31.7562 24.8848 31.0969 24.4969 30.6148 23.9298C30.1327 23.3627 29.8559 22.6496 29.8293 21.9057C29.8176 21.5731 29.8826 21.2423 30.0194 20.9389C30.1561 20.6355 30.3608 20.3676 30.6177 20.1561C30.8746 19.9446 31.1768 19.795 31.5008 19.719C31.8248 19.643 32.1619 19.6427 32.4861 19.7179C33.2158 19.8638 33.875 20.2516 34.357 20.8186C34.839 21.3855 35.1156 22.0985 35.1422 22.8422V22.8422Z" stroke="#020064" stroke-linecap="round" stroke-linejoin="round"/>
<path d="M30.9681 29.6958L34.3834 30.2984" stroke="#020064" stroke-linecap="round" stroke-linejoin="round"/>
<path d="M28.6622 33.9884L26.423 35.0869" stroke="#020064" stroke-linecap="round" stroke-linejoin="round"/>
<path d="M36.3102 35.3372L38.5448 37.221" stroke="#020064" stroke-linecap="round" stroke-linejoin="round"/>
<path d="M25.2768 30.9692C25.928 32.2522 26.3176 33.6519 26.4229 35.0869C26.4229 35.0869 26.4152 32.308 26.7944 31.9956" stroke="#020064" stroke-linecap="round" stroke-linejoin="round"/>
<path d="M37.7982 33.9354C38.177 34.997 38.4275 36.1 38.5444 37.221C38.5444 37.221 38.9367 33.3774 39.6959 33.1317" stroke="#020064" stroke-linecap="round" stroke-linejoin="round"/>
<path d="M32.3866 21.796C32.3238 21.7947 32.2615 21.8062 32.2033 21.8299C32.1452 21.8536 32.0925 21.8889 32.0485 21.9337C32.0045 21.9785 31.9701 22.0318 31.9475 22.0904C31.9248 22.1489 31.9144 22.2115 31.9168 22.2742C31.9226 22.4336 31.9819 22.5864 32.0853 22.7079C32.1886 22.8294 32.33 22.9125 32.4864 22.9436C32.5191 22.9494 32.5522 22.9522 32.5854 22.9521C32.6481 22.9534 32.7104 22.9418 32.7685 22.9182C32.8266 22.8946 32.8793 22.8593 32.9233 22.8146C32.9673 22.7699 33.0017 22.7167 33.0243 22.6582C33.047 22.5998 33.0575 22.5373 33.0552 22.4746C33.0495 22.3153 32.9903 22.1626 32.8871 22.0411C32.7839 21.9197 32.6427 21.8365 32.4864 21.8052C32.4535 21.7992 32.4201 21.7961 32.3866 21.796Z" fill="#020064"/>
<path d="M34.3836 30.2999C34.3836 30.2999 36.6604 29.5629 37.0396 28.1113C37.4188 26.6597 40.8349 27.6423 40.8349 27.6423C40.8349 27.6423 39.6965 32.7541 35.1428 33.0926" stroke="#020064" stroke-linecap="round" stroke-linejoin="round"/>
<path d="M30.9679 29.6958C30.9679 29.6958 28.6911 28.1559 28.3119 26.5715C27.9326 24.9871 24.5174 24.7637 24.5174 24.7637C24.5174 24.7637 25.6558 30.2769 30.2095 32.2183" stroke="#020064" stroke-linecap="round" stroke-linejoin="round"/>
<path d="M23.8498 40.7808C23.5755 40.8948 23.3576 41.113 23.244 41.3874C23.1304 41.6619 23.1303 41.9702 23.2438 42.2448L23.5794 43.05C25.8461 44.105 28.3075 44.6772 30.8071 44.7303C33.3068 44.7834 35.7902 44.3163 38.0998 43.3584L56.971 35.524C57.4059 35.3422 57.786 35.0503 58.0737 34.6769C58.3614 34.3036 58.5469 33.8617 58.6118 33.3948C58.6768 32.928 58.6189 32.4522 58.444 32.0145C58.269 31.5768 57.9831 31.1923 57.6143 30.8988C56.5896 30.0802 55.365 29.5499 54.067 29.3624C52.769 29.175 51.4445 29.3372 50.2301 29.8324L29.8662 38.2822C29.6434 38.3744 29.3986 38.3997 29.1617 38.355C28.9249 38.3102 28.7062 38.1974 28.5324 38.0303L25.3022 34.9187C25.1284 34.7516 24.9097 34.6388 24.6728 34.5941C24.4359 34.5493 24.1911 34.5746 23.9684 34.6668L22.8462 35.1318C22.5433 35.2581 22.3027 35.4994 22.1774 35.8027C22.052 36.106 22.052 36.4467 22.1774 36.75L23.8498 40.7808Z" fill="#B0D9FF"/>
<path d="M28.1358 44.4721C31.4954 45.05 34.95 44.6639 38.0992 43.3584L55.091 36.3059C54.1299 35.7684 53.0601 35.4541 51.9609 35.3863C50.8617 35.3186 49.7614 35.4991 48.7415 35.9145L28.1358 44.4721Z" fill="white" stroke="#020064" stroke-linecap="round" stroke-linejoin="round"/>
<path d="M35.8033 35.817L29.6304 32.0156C29.4368 31.8957 29.2799 31.7248 29.177 31.5216C29.0741 31.3184 29.0291 31.0908 29.0471 30.8637C29.065 30.6367 29.1451 30.4189 29.2786 30.2344C29.4122 30.0499 29.5939 29.9057 29.804 29.8177L31.7492 29.0109C32.0529 28.8852 32.3941 28.8852 32.6978 29.0109L42.4714 33.051L35.8033 35.817Z" fill="white" stroke="#020064" stroke-linecap="round" stroke-linejoin="round"/>
<path d="M23.8498 40.7808C23.5755 40.8948 23.3576 41.113 23.244 41.3874C23.1304 41.6619 23.1303 41.9702 23.2438 42.2448L23.5794 43.05C25.8461 44.105 28.3075 44.6772 30.8071 44.7303C33.3068 44.7834 35.7902 44.3163 38.0998 43.3584L56.971 35.524C57.4059 35.3422 57.786 35.0503 58.0737 34.6769C58.3614 34.3036 58.5469 33.8617 58.6118 33.3948C58.6768 32.928 58.6189 32.4522 58.444 32.0145C58.269 31.5768 57.9831 31.1923 57.6143 30.8988C56.5896 30.0802 55.365 29.5499 54.067 29.3624C52.769 29.175 51.4445 29.3372 50.2301 29.8324L29.8662 38.2822C29.6434 38.3744 29.3986 38.3997 29.1617 38.355C28.9249 38.3102 28.7062 38.1974 28.5324 38.0303L25.3022 34.9187C25.1284 34.7516 24.9097 34.6388 24.6728 34.5941C24.4359 34.5493 24.1911 34.5746 23.9684 34.6668L22.8462 35.1318C22.5433 35.2581 22.3027 35.4994 22.1774 35.8027C22.052 36.106 22.052 36.4467 22.1774 36.75L23.8498 40.7808Z" stroke="#020064" stroke-linecap="round" stroke-linejoin="round"/>
<path d="M36.1968 49.9126C36.1449 50.1345 36.1553 50.3664 36.2266 50.5828C36.298 50.7992 36.4275 50.9918 36.6011 51.1393C36.7747 51.2869 36.9857 51.3838 37.2107 51.4194C37.4358 51.4549 37.6663 51.4278 37.877 51.3409L39.8214 50.5334C40.1247 50.4072 40.3655 50.1658 40.491 49.8622L45.7409 37.1584L38.4985 40.1647L36.1968 49.9126Z" fill="white" stroke="#020064" stroke-linecap="round" stroke-linejoin="round"/>
<path d="M52.9734 32.4023C52.5589 32.5718 52.115 32.6579 51.6672 32.6559C51.2194 32.6538 50.7763 32.5635 50.3634 32.3902C49.9504 32.2169 49.5757 31.964 49.2605 31.6459C48.9453 31.3277 48.6959 30.9506 48.5264 30.5361L49.2046 30.254L50.3206 29.7983C51.4571 29.3531 52.6866 29.1979 53.8981 29.3467C55.1096 29.4956 56.2649 29.9437 57.2599 30.6508L52.9734 32.4023Z" fill="white"/>
<path d="M52.9734 32.4023C52.5589 32.5718 52.115 32.6579 51.6672 32.6559C51.2194 32.6538 50.7763 32.5635 50.3634 32.3902C49.9504 32.2169 49.5757 31.964 49.2605 31.6459C48.9453 31.3277 48.6959 30.9506 48.5264 30.5361L49.2046 30.254L50.3206 29.7983C51.4571 29.3531 52.6866 29.1979 53.8981 29.3467C55.1096 29.4956 56.2649 29.9437 57.2599 30.6508L52.9734 32.4023Z" stroke="#020064" stroke-linecap="round" stroke-linejoin="round"/>
</g>
<defs>
<filter id="filter0_d_17_3529" x="0" y="0.5" width="70" height="70" filterUnits="userSpaceOnUse" color-interpolation-filters="sRGB">
<feFlood flood-opacity="0" result="BackgroundImageFix"/>
<feColorMatrix in="SourceAlpha" type="matrix" values="0 0 0 0 0 0 0 0 0 0 0 0 0 0 0 0 0 0 127 0" result="hardAlpha"/>
<feOffset dy="4"/>
<feGaussianBlur stdDeviation="2"/>
<feComposite in2="hardAlpha" operator="out"/>
<feColorMatrix type="matrix" values="0 0 0 0 0 0 0 0 0 0 0 0 0 0 0 0 0 0 0.25 0"/>
<feBlend mode="normal" in2="BackgroundImageFix" result="effect1_dropShadow_17_3529"/>
<feBlend mode="normal" in="SourceGraphic" in2="effect1_dropShadow_17_3529" result="shape"/>
</filter>
<clipPath id="clip0_17_3529">
<rect width="62" height="62" fill="white" transform="translate(4 0.5)"/>
</clipPath>
</defs>
</svg>
