<svg width="63" height="62" viewBox="0 0 63 62" fill="none" xmlns="http://www.w3.org/2000/svg">
<g clip-path="url(#clip0_17_9065)">
<path d="M0.5 31.0005C0.5 39.2222 3.76606 47.1072 9.57969 52.9208C15.3933 58.7344 23.2783 62.0005 31.5 62.0005C39.7217 62.0005 47.6067 58.7344 53.4203 52.9208C59.2339 47.1072 62.5 39.2222 62.5 31.0005C62.5 22.7788 59.2339 14.8938 53.4203 9.08018C47.6067 3.26655 39.7217 0.000488281 31.5 0.000488281C23.2783 0.000488281 15.3933 3.26655 9.57969 9.08018C3.76606 14.8938 0.5 22.7788 0.5 31.0005Z" fill="#CBE4FB"/>
<path d="M44.0249 55.3889C44.0249 56.2414 38.4821 56.9389 31.6443 56.9389C24.8065 56.9389 19.2637 56.246 19.2637 55.3889C19.2637 54.5317 24.8065 53.8389 31.6443 53.8389C38.4821 53.8389 44.0249 54.534 44.0249 55.3889Z" fill="#A0CFFB"/>
<path d="M45.4333 40.2547C45.4334 40.5038 45.3844 40.7506 45.2892 40.9808C45.1939 41.211 45.0542 41.4202 44.878 41.5964C44.7019 41.7726 44.4927 41.9124 44.2626 42.0078C44.0324 42.1032 43.7856 42.1523 43.5365 42.1523H16.5V8.9493L18.0054 8.19624C18.2629 8.06781 18.5466 8.00081 18.8344 8.00049H43.5365C43.7856 8.00049 44.0324 8.04958 44.2626 8.14495C44.4927 8.24032 44.7019 8.38011 44.878 8.55633C45.0542 8.73256 45.1939 8.94175 45.2892 9.17198C45.3844 9.4022 45.4334 9.64894 45.4333 9.89811V40.2547Z" fill="white" stroke="#020064" stroke-width="0.5" stroke-linecap="round" stroke-linejoin="round"/>
<path d="M43.5358 41.9574C43.5356 42.2222 43.4801 42.484 43.3728 42.726C43.2654 42.968 43.1087 43.1849 42.9126 43.3627C42.7164 43.5406 42.4853 43.6754 42.2339 43.7586C41.9826 43.8418 41.7166 43.8715 41.4531 43.8458L19.3449 41.678V9.89746H41.6381C41.8874 9.89746 42.1342 9.94657 42.3645 10.042C42.5948 10.1374 42.804 10.2772 42.9802 10.4535C43.1565 10.6298 43.2962 10.8391 43.3915 11.0694C43.4868 11.2997 43.5359 11.5466 43.5358 11.7958V41.9574Z" fill="white" stroke="#020064" stroke-width="0.5" stroke-linecap="round" stroke-linejoin="round"/>
<path d="M41.6388 46.2469C41.6388 46.3849 41.6088 46.5214 41.5506 46.6466C41.4925 46.7718 41.4077 46.8828 41.3022 46.9719C41.1967 47.0609 41.0731 47.1258 40.9399 47.1621C40.8067 47.1984 40.6671 47.2051 40.5311 47.1819L17.2714 43.2316C17.0563 43.1943 16.8612 43.0822 16.7208 42.915C16.5803 42.7478 16.5034 42.5364 16.5038 42.3181V9.09668L40.0628 13.0976C40.5047 13.1726 40.9058 13.4015 41.195 13.744C41.4842 14.0864 41.6427 14.5202 41.6426 14.9684L41.6388 46.2469Z" fill="white"/>
<path d="M41.6388 46.2469C41.6388 46.3849 41.6088 46.5214 41.5506 46.6466C41.4925 46.7718 41.4077 46.8828 41.3022 46.9719C41.1967 47.0609 41.0731 47.1258 40.9399 47.1621C40.8067 47.1984 40.6671 47.2051 40.5311 47.1819L17.2714 43.2316C17.0563 43.1943 16.8612 43.0822 16.7208 42.915C16.5803 42.7478 16.5034 42.5364 16.5038 42.3181V9.09668L40.0628 13.0976C40.5047 13.1726 40.9058 13.4015 41.195 13.744C41.4842 14.0864 41.6428 14.5202 41.6426 14.9684L41.6388 46.2469Z" stroke="#020064" stroke-width="0.5" stroke-linecap="round" stroke-linejoin="round"/>
<path d="M28.4766 40.6585H28.5088C28.5688 40.6741 28.6246 40.7029 28.6721 40.7427C28.7197 40.7826 28.7577 40.8325 28.7836 40.8888C28.8099 40.9359 28.8246 40.9885 28.8266 41.0423H28.7752C28.7151 41.0268 28.6593 40.9981 28.6117 40.9582C28.5642 40.9184 28.5261 40.8685 28.5004 40.812C28.4745 40.7648 28.4601 40.7123 28.4581 40.6585C28.4642 40.6574 28.4705 40.6574 28.4766 40.6585ZM28.4766 39.8909C28.3476 39.8876 28.22 39.9177 28.1061 39.9782C27.9922 40.0387 27.8958 40.1276 27.8264 40.2363C27.7376 40.3699 27.6913 40.5273 27.6936 40.6877C27.6954 40.862 27.741 41.0331 27.8264 41.1851C27.9068 41.3427 28.0221 41.4799 28.1635 41.5863C28.3049 41.6927 28.4687 41.7655 28.6424 41.7992C28.6971 41.8091 28.7526 41.8143 28.8082 41.8146C28.937 41.8178 29.0645 41.7877 29.1783 41.7272C29.292 41.6666 29.3883 41.5778 29.4576 41.4691C29.5464 41.3355 29.5927 41.1782 29.5904 41.0178C29.5886 40.8434 29.5429 40.6724 29.4576 40.5203C29.3772 40.3629 29.262 40.2257 29.1208 40.1193C28.9795 40.0129 28.8159 39.9401 28.6424 39.9062C28.5877 39.8963 28.5322 39.8912 28.4766 39.8909Z" fill="#020064"/>
<path d="M30.3496 30.5337L29.9704 26.2924L28.832 26.0913C26.9344 25.7574 26.9344 26.5158 26.9344 26.5158C26.9344 26.5158 25.4167 26.2479 25.4167 27.0071V28.1455C25.4167 28.1455 25.796 27.8331 27.3144 28.101L26.9344 29.931L26.1759 32.4528L24.2783 33.6349L25.036 34.9092L27.3128 34.5515L26.1744 36.248C26.4334 36.6423 26.768 36.9814 27.1588 37.2457C27.5496 37.51 27.9888 37.6943 28.4512 37.7879C28.8621 37.8622 29.2849 37.8338 29.6822 37.7052C30.0794 37.5767 30.4387 37.3519 30.7281 37.051L29.5889 34.953L31.868 36.1121L32.6272 35.1073L31.1096 33.3217L30.3496 30.5337Z" stroke="#020064" stroke-width="0.75" stroke-linecap="round" stroke-linejoin="round"/>
<path d="M26.9883 35.0361C27.4144 35.3746 27.9175 35.6024 28.4529 35.6994C28.9462 35.7716 29.4495 35.7231 29.9199 35.5581" stroke="#020064" stroke-width="0.75" stroke-linecap="round" stroke-linejoin="round"/>
<path d="M26.9346 29.9297L30.3498 30.5323" stroke="#020064" stroke-width="0.75" stroke-linecap="round" stroke-linejoin="round"/>
<path d="M24.6289 34.2222L22.3896 35.3207" stroke="#020064" stroke-width="0.75" stroke-linecap="round" stroke-linejoin="round"/>
<path d="M32.2773 35.5708L34.512 37.4546" stroke="#020064" stroke-width="0.75" stroke-linecap="round" stroke-linejoin="round"/>
<path d="M21.2432 31.2031C21.8944 32.4861 22.2839 33.8858 22.3893 35.3208C22.3893 35.3208 22.3816 32.5419 22.7608 32.2295" stroke="#020064" stroke-width="0.75" stroke-linecap="round" stroke-linejoin="round"/>
<path d="M33.7646 34.169C34.1434 35.2305 34.3939 36.3335 34.5108 37.4545C34.5108 37.4545 34.9031 33.6109 35.6623 33.3652" stroke="#020064" stroke-width="0.75" stroke-linecap="round" stroke-linejoin="round"/>
<path d="M30.3506 30.5334C30.3506 30.5334 32.6274 29.7965 33.0066 28.3449C33.3859 26.8932 36.8019 27.8758 36.8019 27.8758C36.8019 27.8758 35.6635 32.9876 31.1098 33.3261" stroke="#020064" stroke-width="0.75" stroke-linecap="round" stroke-linejoin="round"/>
<path d="M26.9349 29.9297C26.9349 29.9297 24.6581 28.3898 24.2788 26.8054C23.8996 25.2209 20.4844 24.9976 20.4844 24.9976C20.4844 24.9976 21.6228 30.5108 26.1765 32.4522" stroke="#020064" stroke-width="0.75" stroke-linecap="round" stroke-linejoin="round"/>
<path d="M31.1091 22.076C31.1209 22.4086 31.056 22.7394 30.9193 23.0428C30.7827 23.3463 30.578 23.6142 30.3212 23.8258C30.0644 24.0374 29.7623 24.187 29.4384 24.2631C29.1144 24.3392 28.7773 24.3397 28.4531 24.2646C27.7232 24.1186 27.0639 23.7306 26.5818 23.1636C26.0997 22.5965 25.8229 21.8833 25.7963 21.1395C25.7846 20.8069 25.8496 20.4761 25.9863 20.1727C26.1231 19.8693 26.3278 19.6014 26.5847 19.3899C26.8416 19.1783 27.1438 19.0288 27.4678 18.9528C27.7918 18.8768 28.1289 18.8764 28.4531 18.9517C29.1828 19.0976 29.842 19.4853 30.324 20.0523C30.806 20.6193 31.0826 21.3323 31.1091 22.076V22.076Z" stroke="#020064" stroke-width="0.75" stroke-linecap="round" stroke-linejoin="round"/>
<path d="M28.353 21.0299C28.2902 21.0286 28.2278 21.0401 28.1697 21.0638C28.1115 21.0875 28.0588 21.1228 28.0148 21.1676C27.9708 21.2124 27.9365 21.2657 27.9138 21.3243C27.8912 21.3828 27.8807 21.4454 27.8832 21.5081C27.8889 21.6675 27.9482 21.8203 28.0516 21.9418C28.155 22.0633 28.2963 22.1463 28.4527 22.1775C28.4854 22.1833 28.5186 22.1861 28.5518 22.186C28.6145 22.1873 28.6768 22.1757 28.7349 22.1521C28.793 22.1285 28.8456 22.0932 28.8896 22.0485C28.9336 22.0038 28.968 21.9506 28.9907 21.8921C29.0134 21.8336 29.0239 21.7712 29.0216 21.7085C29.0159 21.5492 28.9566 21.3965 28.8534 21.275C28.7502 21.1535 28.609 21.0704 28.4527 21.0391C28.4198 21.0331 28.3864 21.03 28.353 21.0299Z" fill="#020064"/>
<path d="M19.3849 13.1443C19.3797 13.1062 19.3843 13.0674 19.3983 13.0316C19.4124 12.9958 19.4353 12.9641 19.465 12.9397C19.4947 12.9152 19.5301 12.8988 19.568 12.8919C19.6058 12.8849 19.6448 12.8878 19.6812 12.9002L20.3552 13.0184C20.6191 13.054 20.8619 13.1822 21.04 13.3802C21.2182 13.5782 21.3202 13.833 21.3278 14.0993C21.3331 14.217 21.3099 14.3343 21.2604 14.4412C21.2108 14.5481 21.1362 14.6415 21.043 14.7135C20.9497 14.7856 20.8405 14.8341 20.7245 14.855C20.6085 14.876 20.4892 14.8688 20.3767 14.8339L19.956 14.7571V15.3805C19.9611 15.4176 19.9568 15.4554 19.9435 15.4905C19.9303 15.5255 19.9085 15.5567 19.8801 15.5812C19.8517 15.6057 19.8177 15.6227 19.7811 15.6306C19.7445 15.6386 19.7064 15.6373 19.6704 15.6269C19.5884 15.6145 19.5139 15.5722 19.4612 15.5081C19.4085 15.4441 19.3813 15.3628 19.3849 15.2799V13.1443ZM19.956 14.2566L20.3398 14.3257C20.3892 14.3401 20.4413 14.342 20.4916 14.3314C20.5419 14.3207 20.5888 14.2978 20.6282 14.2647C20.6675 14.2316 20.698 14.1893 20.7171 14.1416C20.7362 14.0938 20.7432 14.0421 20.7375 13.991C20.7395 13.8784 20.7011 13.7689 20.6293 13.6821C20.5574 13.5954 20.457 13.5372 20.346 13.5182L19.9621 13.4506L19.956 14.2566Z" fill="#020064" stroke="white" stroke-width="0.1"/>
<path d="M22.1481 13.6051C22.1749 13.5223 22.2308 13.4519 22.3055 13.407C22.3801 13.3622 22.4684 13.3458 22.5542 13.361C22.6512 13.3823 22.7404 13.4297 22.8123 13.4982C22.8842 13.5667 22.9359 13.6536 22.9618 13.7494L23.7072 15.9495C23.7244 15.9969 23.7345 16.0465 23.7371 16.0969C23.7377 16.1291 23.7307 16.1611 23.7167 16.1902C23.7028 16.2193 23.6823 16.2447 23.6568 16.2645C23.6314 16.2843 23.6017 16.2979 23.57 16.3043C23.5384 16.3106 23.5057 16.3095 23.4746 16.3011C23.4091 16.2917 23.3479 16.2632 23.2985 16.2193C23.249 16.1753 23.2137 16.1178 23.1967 16.0539L23.0831 15.6762L22.026 15.4881L21.9117 15.8213C21.9046 15.8498 21.8918 15.8766 21.874 15.9C21.8563 15.9233 21.8339 15.9428 21.8083 15.9572C21.7826 15.9716 21.7544 15.9806 21.7251 15.9836C21.6959 15.9866 21.6664 15.9836 21.6384 15.9748C21.5628 15.9615 21.4939 15.923 21.4429 15.8655C21.3919 15.8081 21.3618 15.7352 21.3574 15.6585C21.3576 15.6171 21.3663 15.5761 21.3828 15.538L22.1481 13.6051ZM22.1903 14.9938L22.9119 15.1204L22.558 13.9528H22.5511L22.1903 14.9938Z" fill="#020064" stroke="white" stroke-width="0.1"/>
<path d="M25.8196 14.3164C25.8235 14.3502 25.8194 14.3843 25.8076 14.4162C25.7958 14.448 25.7767 14.4766 25.7518 14.4997C25.7269 14.5228 25.697 14.5397 25.6644 14.5491C25.6317 14.5584 25.5974 14.56 25.564 14.5536C25.4105 14.5268 25.2869 14.3909 25.0589 14.3502C24.8939 14.321 24.7465 14.3825 24.7465 14.5429C24.7465 14.9352 26.0169 14.9075 26.0169 15.8893C26.0178 16.0071 25.9907 16.1234 25.9377 16.2285C25.8848 16.3337 25.8076 16.4247 25.7124 16.4941C25.6173 16.5635 25.507 16.6093 25.3907 16.6276C25.2744 16.6459 25.1554 16.6362 25.0436 16.5994C24.7503 16.5488 24.1224 16.3691 24.1224 16.0114C24.1187 15.9783 24.123 15.9448 24.1349 15.9137C24.1469 15.8826 24.1661 15.8549 24.191 15.8328C24.2159 15.8106 24.2457 15.7948 24.278 15.7866C24.3103 15.7785 24.344 15.7781 24.3765 15.7857C24.5553 15.8172 24.7687 16.003 25.0152 16.0467C25.2616 16.0905 25.4044 15.9738 25.4044 15.7873C25.4044 15.3397 24.1331 15.385 24.1331 14.5022C24.1316 14.3876 24.1574 14.2743 24.2084 14.1717C24.2594 14.069 24.334 13.98 24.4262 13.9119C24.5184 13.8438 24.6254 13.7986 24.7385 13.78C24.8516 13.7615 24.9675 13.7701 25.0766 13.8052C25.2869 13.842 25.8196 14.0163 25.8196 14.3164Z" fill="#020064" stroke="white" stroke-width="0.1"/>
<path d="M28.1642 14.7303C28.1679 14.7639 28.1637 14.798 28.1518 14.8298C28.14 14.8615 28.1209 14.8901 28.096 14.9131C28.0712 14.9362 28.0413 14.9531 28.0088 14.9625C27.9762 14.972 27.9419 14.9736 27.9086 14.9675C27.7551 14.9398 27.6315 14.804 27.4035 14.764C27.24 14.7349 27.0911 14.7963 27.0911 14.9559C27.0911 15.349 28.3615 15.3213 28.3615 16.3024C28.3625 16.4202 28.3355 16.5366 28.2826 16.6418C28.2297 16.7471 28.1525 16.8382 28.0573 16.9077C27.9622 16.9772 27.8519 17.023 27.7355 17.0414C27.6191 17.0597 27.5 17.0501 27.3881 17.0132C27.0949 16.9618 26.467 16.7829 26.467 16.4237C26.4635 16.3906 26.468 16.3572 26.4801 16.3263C26.4922 16.2953 26.5115 16.2677 26.5365 16.2457C26.5614 16.2238 26.5913 16.2081 26.6235 16.2001C26.6558 16.1921 26.6895 16.1919 26.7218 16.1995C26.8999 16.231 27.1133 16.4168 27.3605 16.4605C27.6077 16.5043 27.7489 16.3876 27.7489 16.2011C27.7489 15.752 26.4785 15.7988 26.4785 14.916C26.477 14.8015 26.5028 14.6883 26.5537 14.5858C26.6047 14.4832 26.6792 14.3942 26.7713 14.3261C26.8634 14.258 26.9703 14.2128 27.0833 14.1942C27.1963 14.1756 27.3121 14.1841 27.4211 14.219C27.6315 14.2597 28.1642 14.4301 28.1642 14.7303Z" fill="#020064" stroke="white" stroke-width="0.1"/>
<path d="M28.9076 14.824C28.9035 14.7861 28.9088 14.7477 28.9232 14.7123C28.9376 14.677 28.9606 14.6457 28.9901 14.6214C29.0195 14.5971 29.0546 14.5806 29.092 14.5732C29.1295 14.5658 29.1682 14.5679 29.2047 14.5792L29.8779 14.6981C30.1421 14.7334 30.385 14.8615 30.5634 15.0595C30.7417 15.2576 30.8438 15.5126 30.8513 15.779C30.8563 15.8967 30.8329 16.0139 30.7832 16.1206C30.7335 16.2274 30.6588 16.3207 30.5656 16.3927C30.4723 16.4646 30.3631 16.513 30.2471 16.534C30.1312 16.5549 30.0119 16.5476 29.8994 16.5129L29.478 16.4361V17.0602C29.4831 17.0973 29.4788 17.1351 29.4656 17.1702C29.4523 17.2052 29.4305 17.2364 29.4021 17.2608C29.3737 17.2852 29.3396 17.3022 29.303 17.31C29.2663 17.3179 29.2283 17.3165 29.1924 17.3058C29.1106 17.2934 29.0362 17.2512 28.9837 17.1873C28.9311 17.1234 28.904 17.0423 28.9076 16.9596V14.824ZM29.478 15.9364L29.8664 16.0039C29.9153 16.0172 29.9667 16.0184 30.0161 16.0073C30.0656 15.9962 30.1115 15.9732 30.1501 15.9403C30.1886 15.9074 30.2185 15.8655 30.2371 15.8184C30.2558 15.7713 30.2627 15.7204 30.2571 15.67C30.2594 15.5576 30.2212 15.4481 30.1495 15.3616C30.0777 15.2751 29.9772 15.2172 29.8664 15.1986L29.478 15.1296V15.9364Z" fill="#020064" stroke="white" stroke-width="0.1"/>
<path d="M31.2187 16.2879C31.1994 16.1175 31.2212 15.9449 31.2822 15.7846C31.3433 15.6243 31.4418 15.481 31.5695 15.3665C31.6972 15.2521 31.8505 15.1699 32.0165 15.1268C32.1825 15.0837 32.3565 15.0809 32.5237 15.1188C32.8958 15.1988 33.2289 15.4049 33.4666 15.7021C33.7044 15.9993 33.8323 16.3694 33.8287 16.75C33.848 16.9204 33.8263 17.093 33.7652 17.2533C33.7042 17.4136 33.6057 17.5569 33.478 17.6714C33.3502 17.7858 33.1969 17.868 33.0309 17.9111C32.8649 17.9542 32.691 17.957 32.5237 17.9191C32.1497 17.8429 31.8143 17.6379 31.5759 17.3398C31.3374 17.0418 31.211 16.6695 31.2187 16.2879ZM33.2415 16.6448C33.2602 16.4206 33.1984 16.1971 33.0673 16.0143C32.9363 15.8314 32.7444 15.7012 32.526 15.6469C32.0516 15.5632 31.8121 15.9355 31.8121 16.3961C31.7911 16.6205 31.8518 16.845 31.9829 17.0283C32.114 17.2116 32.3069 17.3415 32.526 17.3941C33.0097 17.4793 33.2415 17.1093 33.2415 16.6448Z" fill="#020064" stroke="white" stroke-width="0.1"/>
<path d="M34.3709 15.7864C34.3649 15.7485 34.3688 15.7096 34.3823 15.6737C34.3958 15.6377 34.4184 15.6059 34.4479 15.5813C34.4773 15.5567 34.5127 15.5402 34.5505 15.5333C34.5882 15.5265 34.6271 15.5296 34.6634 15.5423L35.3335 15.6597C35.5946 15.6717 35.8404 15.7862 36.0175 15.9784C36.1946 16.1706 36.2886 16.4249 36.2793 16.6861C36.2793 17.1044 35.9645 17.2894 35.5761 17.281L36.2225 18.0878C36.2684 18.1374 36.2955 18.2015 36.2992 18.2689C36.3006 18.3049 36.2939 18.3408 36.2794 18.3738C36.2649 18.4068 36.2432 18.436 36.2157 18.4594C36.1883 18.4828 36.156 18.4996 36.1211 18.5086C36.0862 18.5176 36.0497 18.5186 36.0144 18.5115C35.9261 18.4947 35.8472 18.4454 35.7933 18.3733L34.9489 17.2011H34.939V18.0271C34.944 18.0642 34.9398 18.1019 34.9266 18.1368C34.9133 18.1718 34.8916 18.2029 34.8633 18.2273C34.835 18.2517 34.801 18.2687 34.7645 18.2766C34.728 18.2846 34.69 18.2832 34.6542 18.2728C34.5722 18.2602 34.4978 18.2179 34.4451 18.1538C34.3924 18.0898 34.3652 18.0086 34.3686 17.9258L34.3709 15.7864ZM34.939 16.7928L35.3312 16.8611C35.54 16.8987 35.6851 16.7981 35.6851 16.5855C35.6866 16.487 35.651 16.3914 35.5855 16.3178C35.52 16.2442 35.4293 16.1978 35.3312 16.1879L34.939 16.1188V16.7928Z" fill="#020064" stroke="white" stroke-width="0.1"/>
<path d="M37.1757 16.5097L36.7612 16.4367C36.6879 16.426 36.6212 16.3889 36.5735 16.3323C36.5258 16.2757 36.5006 16.2036 36.5025 16.1297C36.5002 16.0968 36.5057 16.0639 36.5185 16.0335C36.5314 16.0032 36.5512 15.9763 36.5765 15.9552C36.6017 15.934 36.6316 15.919 36.6637 15.9116C36.6958 15.9042 36.7292 15.9045 36.7612 15.9124L38.1606 16.1596C38.2326 16.1728 38.2979 16.2106 38.3451 16.2667C38.3923 16.3227 38.4185 16.3934 38.4193 16.4667C38.4231 16.4999 38.4185 16.5336 38.4061 16.5646C38.3937 16.5957 38.3739 16.6232 38.3482 16.6447C38.3226 16.6662 38.2921 16.6811 38.2593 16.6879C38.2266 16.6947 38.1927 16.6934 38.1606 16.6839L37.7461 16.6071V18.5201C37.7513 18.5573 37.7472 18.5952 37.734 18.6303C37.7208 18.6655 37.699 18.6968 37.6706 18.7213C37.6421 18.7458 37.608 18.7628 37.5713 18.7707C37.5346 18.7786 37.4965 18.7772 37.4605 18.7665C37.3787 18.754 37.3045 18.7117 37.252 18.6478C37.1994 18.5839 37.1723 18.503 37.1757 18.4203V16.5097Z" fill="#020064" stroke="white" stroke-width="0.1"/>
<path d="M20.3498 42.8647C20.0755 42.9786 19.8576 43.1968 19.744 43.4713C19.6304 43.7458 19.6303 44.0541 19.7438 44.3286L20.0794 45.1339C22.3461 46.1889 24.8075 46.7611 27.3071 46.8142C29.8068 46.8673 32.2902 46.4001 34.5998 45.4423L53.471 37.6078C53.9059 37.4261 54.286 37.1342 54.5737 36.7608C54.8614 36.3874 55.0469 35.9456 55.1118 35.4787C55.1768 35.0118 55.1189 34.5361 54.944 34.0984C54.769 33.6607 54.4831 33.2761 54.1143 32.9826C53.0896 32.1641 51.865 31.6338 50.567 31.4463C49.269 31.2588 47.9445 31.4211 46.7301 31.9162L26.3662 40.3661C26.1434 40.4583 25.8986 40.4836 25.6617 40.4388C25.4249 40.3941 25.2062 40.2813 25.0324 40.1142L21.8022 37.0026C21.6284 36.8355 21.4097 36.7227 21.1728 36.6779C20.9359 36.6332 20.6911 36.6585 20.4684 36.7507L19.3462 37.2157C19.0433 37.342 18.8027 37.5832 18.6774 37.8866C18.552 38.1899 18.552 38.5306 18.6774 38.8339L20.3498 42.8647Z" fill="#B0D9FF"/>
<path d="M24.6358 46.5562C27.9954 47.1341 31.45 46.748 34.5992 45.4425L51.591 38.39C50.6299 37.8525 49.5601 37.5382 48.4609 37.4704C47.3617 37.4027 46.2614 37.5832 45.2415 37.9986L24.6358 46.5562Z" fill="white" stroke="#020064" stroke-width="0.75" stroke-linecap="round" stroke-linejoin="round"/>
<path d="M32.3033 37.9008L26.1304 34.0995C25.9368 33.9795 25.7799 33.8086 25.677 33.6054C25.5741 33.4022 25.5291 33.1746 25.5471 32.9476C25.565 32.7205 25.6451 32.5028 25.7786 32.3183C25.9122 32.1338 26.0939 31.9896 26.304 31.9016L28.2492 31.0948C28.5529 30.9691 28.8941 30.9691 29.1978 31.0948L38.9714 35.1349L32.3033 37.9008Z" fill="white" stroke="#020064" stroke-width="0.75" stroke-linecap="round" stroke-linejoin="round"/>
<path d="M20.3498 42.8647C20.0755 42.9786 19.8576 43.1968 19.744 43.4713C19.6304 43.7458 19.6303 44.0541 19.7438 44.3286L20.0794 45.1339C22.3461 46.1889 24.8075 46.7611 27.3071 46.8142C29.8068 46.8673 32.2902 46.4001 34.5998 45.4423L53.471 37.6078C53.9059 37.4261 54.286 37.1342 54.5737 36.7608C54.8614 36.3874 55.0469 35.9456 55.1118 35.4787C55.1768 35.0118 55.1189 34.5361 54.944 34.0984C54.769 33.6607 54.4831 33.2761 54.1143 32.9826C53.0896 32.1641 51.865 31.6338 50.567 31.4463C49.269 31.2588 47.9445 31.4211 46.7301 31.9162L26.3662 40.3661C26.1434 40.4583 25.8986 40.4836 25.6617 40.4388C25.4249 40.3941 25.2062 40.2813 25.0324 40.1142L21.8022 37.0026C21.6284 36.8355 21.4097 36.7227 21.1728 36.6779C20.9359 36.6332 20.6911 36.6585 20.4684 36.7507L19.3462 37.2157C19.0433 37.342 18.8027 37.5832 18.6774 37.8866C18.552 38.1899 18.552 38.5306 18.6774 38.8339L20.3498 42.8647Z" stroke="#020064" stroke-width="0.75" stroke-linecap="round" stroke-linejoin="round"/>
<path d="M32.6968 51.9964C32.6449 52.2183 32.6553 52.4501 32.7266 52.6665C32.798 52.8829 32.9275 53.0755 33.1011 53.2231C33.2747 53.3707 33.4857 53.4676 33.7107 53.5031C33.9358 53.5387 34.1663 53.5115 34.377 53.4247L36.3214 52.6171C36.6247 52.4909 36.8655 52.2496 36.991 51.946L42.2409 39.2422L34.9985 42.2484L32.6968 51.9964Z" fill="white" stroke="#020064" stroke-width="0.75" stroke-linecap="round" stroke-linejoin="round"/>
<path d="M49.4734 34.4864C49.0589 34.6559 48.615 34.742 48.1672 34.74C47.7194 34.7379 47.2763 34.6476 46.8634 34.4743C46.4504 34.3011 46.0757 34.0481 45.7605 33.73C45.4453 33.4118 45.1959 33.0347 45.0264 32.6202L45.7046 32.3381L46.8206 31.8824C47.9571 31.4372 49.1866 31.282 50.3981 31.4308C51.6096 31.5797 52.7649 32.0278 53.7599 32.7349L49.4734 34.4864Z" fill="white"/>
<path d="M49.4734 34.4864C49.0589 34.6559 48.615 34.742 48.1672 34.74C47.7194 34.7379 47.2763 34.6476 46.8634 34.4743C46.4504 34.3011 46.0757 34.0481 45.7605 33.73C45.4453 33.4118 45.1959 33.0347 45.0264 32.6202L45.7046 32.3381L46.8206 31.8824C47.9571 31.4372 49.1866 31.282 50.3981 31.4308C51.6096 31.5797 52.7649 32.0278 53.7599 32.7349L49.4734 34.4864Z" stroke="#020064" stroke-width="0.75" stroke-linecap="round" stroke-linejoin="round"/>
</g>
<defs>
<clipPath id="clip0_17_9065">
<rect width="62" height="62" fill="white" transform="translate(0.5 0.000488281)"/>
</clipPath>
</defs>
</svg>
