<svg width="28" height="28" viewBox="0 0 28 28" fill="none" xmlns="http://www.w3.org/2000/svg">
<path d="M2.33301 8.16675L11.8587 14.8348C12.6301 15.3747 13.0158 15.6447 13.4353 15.7493C13.8059 15.8416 14.1935 15.8416 14.564 15.7493C14.9836 15.6447 15.3692 15.3747 16.1406 14.8348L25.6663 8.16675M7.93301 23.3334H20.0663C22.0265 23.3334 23.0066 23.3334 23.7553 22.9519C24.4139 22.6164 24.9493 22.081 25.2849 21.4224C25.6663 20.6737 25.6663 19.6936 25.6663 17.7334V10.2667C25.6663 8.30656 25.6663 7.32647 25.2849 6.57778C24.9493 5.91921 24.4139 5.38378 23.7553 5.04823C23.0066 4.66675 22.0265 4.66675 20.0663 4.66675H7.93301C5.97282 4.66675 4.99273 4.66675 4.24404 5.04823C3.58547 5.38378 3.05004 5.91921 2.71448 6.57778C2.33301 7.32647 2.33301 8.30656 2.33301 10.2667V17.7334C2.33301 19.6936 2.33301 20.6737 2.71448 21.4224C3.05004 22.081 3.58547 22.6164 4.24404 22.9519C4.99273 23.3334 5.97282 23.3334 7.93301 23.3334Z" stroke="black" stroke-width="2" stroke-linecap="round" stroke-linejoin="round"/>
</svg>
