<svg width="28" height="28" viewBox="0 0 28 28" fill="none" xmlns="http://www.w3.org/2000/svg">
<g clip-path="url(#clip0_19_57377)">
<path d="M14 28C21.732 28 28 21.732 28 14C28 6.26801 21.732 0 14 0C6.26801 0 0 6.26801 0 14C0 21.732 6.26801 28 14 28Z" fill="#FF4500"/>
<path d="M23.3331 13.9999C23.3331 12.8701 22.4162 11.9531 21.2864 11.9531C20.7296 11.9531 20.2384 12.166 19.8782 12.5262C18.4864 11.5274 16.5542 10.8724 14.4255 10.7906L15.3589 6.41863L18.3881 7.05723C18.4209 7.82682 19.0595 8.44904 19.8454 8.44904C20.6478 8.44904 21.3027 7.79407 21.3027 6.99174C21.3027 6.1894 20.6478 5.53442 19.8454 5.53442C19.2723 5.53442 18.7811 5.86191 18.5519 6.35314L15.1624 5.63267C15.0641 5.6163 14.9659 5.63267 14.884 5.68179C14.8021 5.73092 14.753 5.81279 14.7203 5.91103L13.6887 10.7906C11.5109 10.8561 9.56238 11.4947 8.15419 12.5262C7.79396 12.1824 7.28635 11.9531 6.746 11.9531C5.61618 11.9531 4.69922 12.8701 4.69922 13.9999C4.69922 14.835 5.19045 15.5391 5.91091 15.8666C5.87817 16.0631 5.86179 16.2759 5.86179 16.4888C5.86179 19.6327 9.51326 22.1707 14.0326 22.1707C18.5519 22.1707 22.2033 19.6327 22.2033 16.4888C22.2033 16.2759 22.1869 16.0795 22.1542 15.883C22.8255 15.5555 23.3331 14.835 23.3331 13.9999ZM9.33314 15.4572C9.33314 14.6549 9.98811 13.9999 10.7904 13.9999C11.5928 13.9999 12.2478 14.6549 12.2478 15.4572C12.2478 16.2596 11.5928 16.9145 10.7904 16.9145C9.98811 16.9145 9.33314 16.2596 9.33314 15.4572ZM17.4711 19.3052C16.4723 20.304 14.5729 20.3695 14.0162 20.3695C13.4595 20.3695 11.5437 20.2876 10.5612 19.3052C10.4138 19.1578 10.4138 18.9122 10.5612 18.7648C10.7086 18.6175 10.9542 18.6175 11.1016 18.7648C11.7238 19.3871 13.0665 19.6163 14.0326 19.6163C14.9986 19.6163 16.325 19.3871 16.9635 18.7648C17.1109 18.6175 17.3565 18.6175 17.5039 18.7648C17.6185 18.9286 17.6185 19.1578 17.4711 19.3052ZM17.2092 16.9145C16.4068 16.9145 15.7519 16.2596 15.7519 15.4572C15.7519 14.6549 16.4068 13.9999 17.2092 13.9999C18.0115 13.9999 18.6665 14.6549 18.6665 15.4572C18.6665 16.2596 18.0115 16.9145 17.2092 16.9145Z" fill="white"/>
</g>
<defs>
<clipPath id="clip0_19_57377">
<rect width="28" height="28" fill="white"/>
</clipPath>
</defs>
</svg>
