<svg width="25" height="25" viewBox="0 0 25 25" fill="none" xmlns="http://www.w3.org/2000/svg">
<path d="M22.7234 0.00195312H2.27187C1.29219 0.00195312 0.5 0.775391 0.5 1.73164V22.2676C0.5 23.2238 1.29219 24.002 2.27187 24.002H22.7234C23.7031 24.002 24.5 23.2238 24.5 22.2723V1.73164C24.5 0.775391 23.7031 0.00195312 22.7234 0.00195312ZM7.62031 20.4535H4.05781V8.99726H7.62031V20.4535ZM5.83906 7.43633C4.69531 7.43633 3.77188 6.51289 3.77188 5.37383C3.77188 4.23477 4.69531 3.31133 5.83906 3.31133C6.97813 3.31133 7.90156 4.23477 7.90156 5.37383C7.90156 6.5082 6.97813 7.43633 5.83906 7.43633ZM20.9516 20.4535H17.3937V14.8848C17.3937 13.5582 17.3703 11.8473 15.5422 11.8473C13.6906 11.8473 13.4094 13.2957 13.4094 14.791V20.4535H9.85625V8.99726H13.2687V10.5629H13.3156C13.7891 9.66289 14.9516 8.71133 16.6813 8.71133C20.2859 8.71133 20.9516 11.0832 20.9516 14.1676V20.4535V20.4535Z" fill="white"/>
</svg>
