<svg width="63" height="62" viewBox="0 0 63 62" fill="none" xmlns="http://www.w3.org/2000/svg">
<g clip-path="url(#clip0_9882_215022)">
<path d="M0.5 31C0.5 39.2217 3.76606 47.1067 9.57969 52.9203C15.3933 58.7339 23.2783 62 31.5 62C39.7217 62 47.6067 58.7339 53.4203 52.9203C59.2339 47.1067 62.5 39.2217 62.5 31C62.5 22.7783 59.2339 14.8933 53.4203 9.07969C47.6067 3.26606 39.7217 0 31.5 0C23.2783 0 15.3933 3.26606 9.57969 9.07969C3.76606 14.8933 0.5 22.7783 0.5 31Z" fill="#CBE4FB"/>
<path d="M44.0249 55.3884C44.0249 56.2409 38.4821 56.9384 31.6443 56.9384C24.8065 56.9384 19.2637 56.2455 19.2637 55.3884C19.2637 54.5312 24.8065 53.8384 31.6443 53.8384C38.4821 53.8384 44.0249 54.5336 44.0249 55.3884Z" fill="#A0CFFB"/>
<path d="M45.4333 40.2542C45.4334 40.5033 45.3844 40.7501 45.2892 40.9803C45.1939 41.2105 45.0542 41.4197 44.878 41.5959C44.7019 41.7722 44.4927 41.9119 44.2626 42.0073C44.0324 42.1027 43.7856 42.1518 43.5365 42.1518H16.5V8.94881L18.0054 8.19575C18.2629 8.06732 18.5466 8.00032 18.8344 8H43.5365C43.7856 8 44.0324 8.04909 44.2626 8.14446C44.4927 8.23984 44.7019 8.37963 44.878 8.55585C45.0542 8.73207 45.1939 8.94126 45.2892 9.17149C45.3844 9.40171 45.4334 9.64846 45.4333 9.89762V40.2542Z" fill="white" stroke="#020064" stroke-width="0.5" stroke-linecap="round" stroke-linejoin="round"/>
<path d="M43.5358 41.9569C43.5356 42.2217 43.4801 42.4835 43.3728 42.7255C43.2655 42.9675 43.1087 43.1844 42.9126 43.3622C42.7165 43.5401 42.4853 43.6749 42.234 43.7581C41.9826 43.8413 41.7167 43.871 41.4532 43.8453L19.345 41.6775V9.89697H41.6382C41.8874 9.89697 42.1343 9.94608 42.3645 10.0415C42.5948 10.1369 42.804 10.2768 42.9803 10.453C43.1565 10.6293 43.2962 10.8386 43.3916 11.0689C43.4869 11.2993 43.5359 11.5461 43.5358 11.7954V41.9569Z" fill="white" stroke="#020064" stroke-width="0.5" stroke-linecap="round" stroke-linejoin="round"/>
<path d="M41.6387 46.2464C41.6388 46.3845 41.6087 46.5209 41.5505 46.6461C41.4924 46.7713 41.4076 46.8823 41.3021 46.9714C41.1966 47.0604 41.073 47.1253 40.9398 47.1616C40.8066 47.1979 40.6671 47.2046 40.531 47.1814L17.2713 43.2311C17.0562 43.1938 16.8612 43.0817 16.7207 42.9145C16.5802 42.7474 16.5034 42.5359 16.5037 42.3176V9.09619L40.0627 13.0972C40.5046 13.1721 40.9057 13.401 41.1949 13.7435C41.4841 14.0859 41.6427 14.5197 41.6425 14.9679L41.6387 46.2464Z" fill="white"/>
<path d="M41.6387 46.2464C41.6388 46.3845 41.6087 46.5209 41.5505 46.6461C41.4924 46.7713 41.4076 46.8823 41.3021 46.9714C41.1966 47.0604 41.073 47.1253 40.9398 47.1616C40.8066 47.1979 40.6671 47.2046 40.531 47.1814L17.2713 43.2311C17.0562 43.1938 16.8612 43.0817 16.7207 42.9145C16.5802 42.7474 16.5034 42.5359 16.5037 42.3176V9.09619L40.0627 13.0972C40.5046 13.1721 40.9057 13.401 41.1949 13.7435C41.4841 14.0859 41.6427 14.5197 41.6425 14.9679L41.6387 46.2464Z" stroke="#020064" stroke-width="0.5" stroke-linecap="round" stroke-linejoin="round"/>
<path d="M28.4764 40.6578H28.5087C28.5687 40.6734 28.6245 40.7022 28.672 40.742C28.7195 40.7818 28.7576 40.8317 28.7835 40.8881C28.8098 40.9351 28.8245 40.9877 28.8265 41.0416H28.7751C28.715 41.0261 28.6592 40.9974 28.6116 40.9575C28.5641 40.9177 28.526 40.8677 28.5002 40.8113C28.4744 40.7641 28.46 40.7115 28.458 40.6578C28.4641 40.6567 28.4703 40.6567 28.4764 40.6578ZM28.4764 39.8901C28.3475 39.8869 28.2199 39.917 28.106 39.9775C27.9921 40.038 27.8957 40.1269 27.8262 40.2356C27.7375 40.3692 27.6912 40.5265 27.6934 40.6869C27.6953 40.8613 27.7409 41.0323 27.8262 41.1844C27.9067 41.342 28.022 41.4792 28.1634 41.5856C28.3048 41.692 28.4685 41.7648 28.6422 41.7985C28.697 41.8084 28.7524 41.8136 28.8081 41.8139C28.9369 41.8171 29.0644 41.7869 29.1781 41.7264C29.2919 41.6659 29.3881 41.577 29.4575 41.4684C29.5463 41.3348 29.5926 41.1774 29.5903 41.017C29.5885 40.8427 29.5428 40.6716 29.4575 40.5196C29.3771 40.3621 29.2619 40.225 29.1206 40.1186C28.9794 40.0122 28.8158 39.9393 28.6422 39.9055C28.5875 39.8956 28.532 39.8904 28.4764 39.8901Z" fill="#020064"/>
<path d="M30.3496 30.5332L29.9704 26.2919L28.832 26.0908C26.9344 25.7569 26.9344 26.5153 26.9344 26.5153C26.9344 26.5153 25.4167 26.2474 25.4167 27.0066V28.145C25.4167 28.145 25.796 27.8326 27.3144 28.1005L26.9344 29.9306L26.1759 32.4523L24.2783 33.6344L25.036 34.9087L27.3128 34.551L26.1744 36.2475C26.4334 36.6418 26.768 36.9809 27.1588 37.2452C27.5496 37.5096 27.9888 37.6938 28.4512 37.7874C28.8621 37.8617 29.2849 37.8333 29.6822 37.7048C30.0794 37.5762 30.4387 37.3514 30.7281 37.0505L29.5889 34.9525L31.868 36.1116L32.6272 35.1068L31.1096 33.3213L30.3496 30.5332Z" stroke="#020064" stroke-width="0.75" stroke-linecap="round" stroke-linejoin="round"/>
<path d="M26.9883 35.0354C27.4144 35.3738 27.9175 35.6017 28.4529 35.6986C28.9462 35.7708 29.4495 35.7224 29.9199 35.5574" stroke="#020064" stroke-width="0.75" stroke-linecap="round" stroke-linejoin="round"/>
<path d="M26.9346 29.9292L30.3498 30.5318" stroke="#020064" stroke-width="0.75" stroke-linecap="round" stroke-linejoin="round"/>
<path d="M24.6289 34.2217L22.3896 35.3202" stroke="#020064" stroke-width="0.75" stroke-linecap="round" stroke-linejoin="round"/>
<path d="M32.2773 35.5703L34.512 37.4541" stroke="#020064" stroke-width="0.75" stroke-linecap="round" stroke-linejoin="round"/>
<path d="M21.2432 31.2026C21.8944 32.4856 22.2839 33.8853 22.3893 35.3203C22.3893 35.3203 22.3816 32.5414 22.7608 32.229" stroke="#020064" stroke-width="0.75" stroke-linecap="round" stroke-linejoin="round"/>
<path d="M33.7646 34.1687C34.1434 35.2303 34.3939 36.3332 34.5108 37.4542C34.5108 37.4542 34.9031 33.6106 35.6623 33.365" stroke="#020064" stroke-width="0.75" stroke-linecap="round" stroke-linejoin="round"/>
<path d="M30.3506 30.5332C30.3506 30.5332 32.6274 29.7962 33.0066 28.3446C33.3859 26.893 36.8019 27.8756 36.8019 27.8756C36.8019 27.8756 35.6635 32.9873 31.1098 33.3259" stroke="#020064" stroke-width="0.75" stroke-linecap="round" stroke-linejoin="round"/>
<path d="M26.9349 29.9292C26.9349 29.9292 24.6581 28.3893 24.2788 26.8049C23.8996 25.2205 20.4844 24.9971 20.4844 24.9971C20.4844 24.9971 21.6228 30.5103 26.1765 32.4517" stroke="#020064" stroke-width="0.75" stroke-linecap="round" stroke-linejoin="round"/>
<path d="M31.1091 22.0755C31.1209 22.4081 31.056 22.7389 30.9193 23.0423C30.7827 23.3458 30.578 23.6137 30.3212 23.8253C30.0644 24.0369 29.7623 24.1866 29.4384 24.2627C29.1144 24.3387 28.7773 24.3392 28.4531 24.2641C27.7232 24.1181 27.0639 23.7302 26.5818 23.1631C26.0997 22.596 25.8229 21.8828 25.7963 21.139C25.7846 20.8064 25.8496 20.4756 25.9863 20.1722C26.1231 19.8688 26.3278 19.6009 26.5847 19.3894C26.8416 19.1778 27.1438 19.0283 27.4678 18.9523C27.7918 18.8763 28.1289 18.8759 28.4531 18.9512C29.1828 19.0971 29.842 19.4849 30.324 20.0518C30.806 20.6188 31.0826 21.3318 31.1091 22.0755V22.0755Z" stroke="#020064" stroke-width="0.75" stroke-linecap="round" stroke-linejoin="round"/>
<path d="M28.353 21.0294C28.2902 21.0281 28.2278 21.0396 28.1697 21.0633C28.1115 21.087 28.0588 21.1223 28.0148 21.1671C27.9708 21.2119 27.9365 21.2652 27.9138 21.3238C27.8912 21.3823 27.8807 21.4449 27.8832 21.5076C27.8889 21.667 27.9482 21.8198 28.0516 21.9413C28.155 22.0628 28.2963 22.1459 28.4527 22.177C28.4854 22.1828 28.5186 22.1856 28.5518 22.1855C28.6145 22.1868 28.6768 22.1752 28.7349 22.1516C28.793 22.128 28.8456 22.0927 28.8896 22.048C28.9336 22.0033 28.968 21.9501 28.9907 21.8916C29.0134 21.8332 29.0239 21.7707 29.0216 21.708C29.0159 21.5487 28.9566 21.396 28.8534 21.2745C28.7502 21.1531 28.609 21.0699 28.4527 21.0386C28.4198 21.0326 28.3864 21.0295 28.353 21.0294Z" fill="#020064"/>
<path d="M19.3849 13.1438C19.3797 13.1057 19.3843 13.0669 19.3983 13.0311C19.4124 12.9953 19.4353 12.9637 19.465 12.9392C19.4947 12.9147 19.5301 12.8983 19.568 12.8914C19.6058 12.8845 19.6448 12.8873 19.6812 12.8997L20.3552 13.0179C20.6191 13.0535 20.8619 13.1817 21.04 13.3797C21.2182 13.5777 21.3202 13.8326 21.3278 14.0988C21.3331 14.2165 21.3099 14.3338 21.2604 14.4407C21.2108 14.5476 21.1362 14.641 21.043 14.713C20.9497 14.7851 20.8405 14.8336 20.7245 14.8546C20.6085 14.8755 20.4892 14.8683 20.3767 14.8334L19.956 14.7567V15.38C19.9611 15.4171 19.9568 15.4549 19.9435 15.49C19.9303 15.525 19.9085 15.5562 19.8801 15.5807C19.8517 15.6052 19.8177 15.6222 19.7811 15.6302C19.7445 15.6381 19.7064 15.6368 19.6704 15.6264C19.5884 15.614 19.5139 15.5717 19.4612 15.5076C19.4085 15.4436 19.3813 15.3623 19.3849 15.2794V13.1438ZM19.956 14.2562L20.3398 14.3252C20.3892 14.3396 20.4413 14.3415 20.4916 14.3309C20.5419 14.3202 20.5888 14.2973 20.6282 14.2642C20.6675 14.2311 20.698 14.1888 20.7171 14.1411C20.7362 14.0933 20.7432 14.0416 20.7375 13.9905C20.7395 13.878 20.7011 13.7684 20.6293 13.6816C20.5574 13.5949 20.457 13.5367 20.346 13.5177L19.9621 13.4501L19.956 14.2562Z" fill="#020064" stroke="white" stroke-width="0.1"/>
<path d="M22.1481 13.6044C22.1749 13.5215 22.2308 13.4512 22.3055 13.4063C22.3801 13.3614 22.4684 13.3451 22.5542 13.3603C22.6512 13.3815 22.7404 13.429 22.8123 13.4975C22.8842 13.566 22.9359 13.6528 22.9618 13.7487L23.7072 15.9488C23.7244 15.9961 23.7345 16.0458 23.7371 16.0961C23.7377 16.1284 23.7307 16.1603 23.7167 16.1894C23.7028 16.2185 23.6823 16.244 23.6568 16.2638C23.6314 16.2836 23.6017 16.2972 23.57 16.3035C23.5384 16.3099 23.5057 16.3088 23.4746 16.3003C23.4091 16.2909 23.3479 16.2625 23.2985 16.2186C23.249 16.1746 23.2137 16.1171 23.1967 16.0532L23.0831 15.6755L22.026 15.4874L21.9117 15.8206C21.9046 15.8491 21.8918 15.8759 21.874 15.8992C21.8563 15.9226 21.8339 15.9421 21.8083 15.9565C21.7826 15.9709 21.7544 15.9798 21.7251 15.9829C21.6959 15.9859 21.6664 15.9829 21.6384 15.9741C21.5628 15.9607 21.4939 15.9222 21.4429 15.8648C21.3919 15.8074 21.3618 15.7345 21.3574 15.6578C21.3576 15.6163 21.3663 15.5753 21.3828 15.5373L22.1481 13.6044ZM22.1903 14.993L22.9119 15.1197L22.558 13.9521H22.5511L22.1903 14.993Z" fill="#020064" stroke="white" stroke-width="0.1"/>
<path d="M25.8196 14.316C25.8235 14.3497 25.8194 14.3838 25.8076 14.4157C25.7958 14.4475 25.7767 14.4761 25.7518 14.4992C25.7269 14.5223 25.697 14.5392 25.6644 14.5486C25.6317 14.5579 25.5974 14.5595 25.564 14.5532C25.4105 14.5263 25.2869 14.3904 25.0589 14.3497C24.8939 14.3206 24.7465 14.382 24.7465 14.5424C24.7465 14.9347 26.0169 14.907 26.0169 15.8889C26.0178 16.0066 25.9907 16.1229 25.9377 16.228C25.8848 16.3332 25.8076 16.4243 25.7124 16.4936C25.6173 16.563 25.507 16.6088 25.3907 16.6271C25.2744 16.6454 25.1554 16.6357 25.0436 16.5989C24.7503 16.5483 24.1224 16.3686 24.1224 16.0109C24.1187 15.9778 24.123 15.9443 24.1349 15.9132C24.1469 15.8821 24.1661 15.8544 24.191 15.8323C24.2159 15.8102 24.2457 15.7943 24.278 15.7862C24.3103 15.778 24.344 15.7776 24.3765 15.7852C24.5553 15.8167 24.7687 16.0025 25.0152 16.0462C25.2616 16.09 25.4044 15.9733 25.4044 15.7868C25.4044 15.3392 24.1331 15.3845 24.1331 14.5017C24.1316 14.3871 24.1574 14.2738 24.2084 14.1712C24.2594 14.0685 24.334 13.9795 24.4262 13.9114C24.5184 13.8433 24.6254 13.7981 24.7385 13.7795C24.8516 13.761 24.9675 13.7696 25.0766 13.8047C25.2869 13.8415 25.8196 14.0158 25.8196 14.316Z" fill="#020064" stroke="white" stroke-width="0.1"/>
<path d="M28.1642 14.7298C28.1679 14.7635 28.1637 14.7975 28.1518 14.8293C28.14 14.861 28.1209 14.8896 28.096 14.9126C28.0712 14.9357 28.0413 14.9526 28.0088 14.962C27.9762 14.9715 27.9419 14.9732 27.9086 14.967C27.7551 14.9393 27.6315 14.8035 27.4035 14.7635C27.24 14.7344 27.0911 14.7958 27.0911 14.9555C27.0911 15.3485 28.3615 15.3209 28.3615 16.3019C28.3625 16.4197 28.3355 16.5361 28.2826 16.6413C28.2297 16.7466 28.1525 16.8378 28.0573 16.9072C27.9622 16.9767 27.8519 17.0225 27.7355 17.0409C27.6191 17.0592 27.5 17.0496 27.3881 17.0127C27.0949 16.9613 26.467 16.7825 26.467 16.4232C26.4635 16.3901 26.468 16.3567 26.4801 16.3258C26.4922 16.2948 26.5115 16.2672 26.5365 16.2453C26.5614 16.2233 26.5913 16.2077 26.6235 16.1996C26.6558 16.1916 26.6895 16.1914 26.7218 16.199C26.8999 16.2305 27.1133 16.4163 27.3605 16.46C27.6077 16.5038 27.7489 16.3871 27.7489 16.2006C27.7489 15.7515 26.4785 15.7983 26.4785 14.9155C26.477 14.801 26.5028 14.6878 26.5537 14.5853C26.6047 14.4827 26.6792 14.3937 26.7713 14.3256C26.8634 14.2575 26.9703 14.2123 27.0833 14.1937C27.1963 14.1751 27.3121 14.1836 27.4211 14.2185C27.6315 14.2592 28.1642 14.4296 28.1642 14.7298Z" fill="#020064" stroke="white" stroke-width="0.1"/>
<path d="M28.9076 14.8235C28.9035 14.7856 28.9088 14.7472 28.9232 14.7118C28.9376 14.6765 28.9606 14.6452 28.9901 14.6209C29.0195 14.5967 29.0546 14.5801 29.092 14.5727C29.1295 14.5653 29.1682 14.5674 29.2047 14.5787L29.8779 14.6977C30.1421 14.7329 30.385 14.861 30.5634 15.059C30.7417 15.2571 30.8438 15.5121 30.8513 15.7785C30.8563 15.8962 30.8329 16.0134 30.7832 16.1202C30.7335 16.227 30.6588 16.3202 30.5656 16.3922C30.4723 16.4641 30.3631 16.5126 30.2471 16.5335C30.1312 16.5544 30.0119 16.5472 29.8994 16.5124L29.478 16.4356V17.0597C29.4831 17.0968 29.4788 17.1346 29.4656 17.1697C29.4523 17.2047 29.4305 17.2359 29.4021 17.2603C29.3737 17.2847 29.3396 17.3017 29.303 17.3095C29.2663 17.3174 29.2283 17.316 29.1924 17.3053C29.1106 17.2929 29.0362 17.2507 28.9837 17.1868C28.9311 17.1229 28.904 17.0418 28.9076 16.9591V14.8235ZM29.478 15.9359L29.8664 16.0034C29.9153 16.0167 29.9667 16.0179 30.0161 16.0068C30.0656 15.9957 30.1115 15.9727 30.1501 15.9398C30.1886 15.9069 30.2185 15.865 30.2371 15.8179C30.2558 15.7708 30.2627 15.7199 30.2571 15.6695C30.2594 15.5571 30.2212 15.4477 30.1495 15.3611C30.0777 15.2746 29.9772 15.2167 29.8664 15.1982L29.478 15.1291V15.9359Z" fill="#020064" stroke="white" stroke-width="0.1"/>
<path d="M31.2187 16.2874C31.1994 16.117 31.2212 15.9444 31.2822 15.7841C31.3433 15.6238 31.4418 15.4805 31.5695 15.366C31.6972 15.2516 31.8505 15.1694 32.0165 15.1263C32.1825 15.0832 32.3565 15.0804 32.5237 15.1183C32.8958 15.1983 33.2289 15.4044 33.4666 15.7016C33.7044 15.9988 33.8323 16.3689 33.8287 16.7495C33.848 16.92 33.8263 17.0925 33.7652 17.2528C33.7042 17.4131 33.6057 17.5564 33.478 17.6709C33.3502 17.7853 33.1969 17.8675 33.0309 17.9106C32.8649 17.9537 32.691 17.9565 32.5237 17.9187C32.1497 17.8424 31.8143 17.6374 31.5759 17.3393C31.3374 17.0413 31.211 16.669 31.2187 16.2874ZM33.2415 16.6444C33.2602 16.4202 33.1984 16.1966 33.0673 16.0138C32.9363 15.8309 32.7444 15.7007 32.526 15.6464C32.0516 15.5627 31.8121 15.9351 31.8121 16.3956C31.7911 16.62 31.8518 16.8445 31.9829 17.0278C32.114 17.2111 32.3069 17.341 32.526 17.3936C33.0097 17.4788 33.2415 17.1088 33.2415 16.6444Z" fill="#020064" stroke="white" stroke-width="0.1"/>
<path d="M34.3709 15.7859C34.3649 15.748 34.3688 15.7091 34.3823 15.6732C34.3958 15.6373 34.4184 15.6054 34.4479 15.5808C34.4773 15.5562 34.5127 15.5397 34.5505 15.5329C34.5882 15.526 34.6271 15.5291 34.6634 15.5418L35.3335 15.6592C35.5946 15.6712 35.8404 15.7857 36.0175 15.9779C36.1946 16.1701 36.2886 16.4244 36.2793 16.6856C36.2793 17.1039 35.9645 17.2889 35.5761 17.2805L36.2225 18.0873C36.2684 18.1369 36.2955 18.201 36.2992 18.2685C36.3006 18.3044 36.2939 18.3403 36.2794 18.3733C36.2649 18.4063 36.2432 18.4356 36.2157 18.4589C36.1883 18.4823 36.156 18.4991 36.1211 18.5081C36.0862 18.5172 36.0497 18.5181 36.0144 18.511C35.9261 18.4942 35.8472 18.4449 35.7933 18.3729L34.9489 17.2007H34.939V18.0266C34.944 18.0637 34.9398 18.1014 34.9266 18.1364C34.9133 18.1713 34.8916 18.2024 34.8633 18.2268C34.835 18.2512 34.801 18.2682 34.7645 18.2761C34.728 18.2841 34.69 18.2828 34.6542 18.2723C34.5722 18.2597 34.4978 18.2174 34.4451 18.1534C34.3924 18.0893 34.3652 18.0082 34.3686 17.9253L34.3709 15.7859ZM34.939 16.7923L35.3312 16.8606C35.54 16.8982 35.6851 16.7976 35.6851 16.585C35.6866 16.4865 35.651 16.391 35.5855 16.3173C35.52 16.2437 35.4293 16.1973 35.3312 16.1874L34.939 16.1183V16.7923Z" fill="#020064" stroke="white" stroke-width="0.1"/>
<path d="M37.1757 16.5092L36.7612 16.4362C36.6879 16.4256 36.6212 16.3884 36.5735 16.3318C36.5258 16.2752 36.5006 16.2031 36.5025 16.1292C36.5002 16.0963 36.5057 16.0634 36.5185 16.033C36.5314 16.0027 36.5512 15.9758 36.5765 15.9547C36.6017 15.9335 36.6316 15.9186 36.6637 15.9111C36.6958 15.9037 36.7292 15.904 36.7612 15.9119L38.1606 16.1591C38.2326 16.1723 38.2979 16.2102 38.3451 16.2662C38.3923 16.3222 38.4185 16.3929 38.4193 16.4662C38.4231 16.4994 38.4185 16.5331 38.4061 16.5641C38.3937 16.5952 38.3739 16.6227 38.3482 16.6442C38.3226 16.6657 38.2921 16.6806 38.2593 16.6874C38.2266 16.6943 38.1927 16.6929 38.1606 16.6834L37.7461 16.6067V18.5196C37.7513 18.5568 37.7472 18.5947 37.734 18.6299C37.7208 18.665 37.699 18.6963 37.6706 18.7208C37.6421 18.7453 37.608 18.7623 37.5713 18.7702C37.5346 18.7781 37.4965 18.7767 37.4605 18.766C37.3787 18.7535 37.3045 18.7112 37.252 18.6473C37.1994 18.5835 37.1723 18.5025 37.1757 18.4198V16.5092Z" fill="#020064" stroke="white" stroke-width="0.1"/>
<path d="M20.3497 42.8642C20.0754 42.9782 19.8575 43.1963 19.7439 43.4708C19.6303 43.7453 19.6302 44.0536 19.7437 44.3281L20.0793 45.1334C22.346 46.1884 24.8074 46.7606 27.307 46.8137C29.8067 46.8668 32.2902 46.3996 34.5997 45.4418L53.4709 37.6073C53.9058 37.4256 54.2859 37.1337 54.5736 36.7603C54.8613 36.387 55.0468 35.9451 55.1117 35.4782C55.1767 35.0113 55.1188 34.5356 54.9439 34.0979C54.769 33.6602 54.483 33.2757 54.1142 32.9821C53.0895 32.1636 51.865 31.6333 50.5669 31.4458C49.2689 31.2584 47.9444 31.4206 46.73 31.9157L26.3661 40.3656C26.1433 40.4578 25.8985 40.4831 25.6617 40.4383C25.4248 40.3936 25.2061 40.2808 25.0323 40.1137L21.8021 37.0021C21.6283 36.835 21.4096 36.7222 21.1727 36.6774C20.9358 36.6327 20.6911 36.658 20.4683 36.7502L19.3461 37.2152C19.0432 37.3415 18.8026 37.5827 18.6773 37.8861C18.5519 38.1894 18.5519 38.5301 18.6773 38.8334L20.3497 42.8642Z" fill="#B0D9FF"/>
<path d="M24.6357 46.5555C27.9954 47.1334 31.45 46.7472 34.5991 45.4418L51.591 38.3893C50.6299 37.8518 49.56 37.5375 48.4608 37.4697C47.3617 37.402 46.2613 37.5825 45.2414 37.9979L24.6357 46.5555Z" fill="white" stroke="#020064" stroke-width="0.75" stroke-linecap="round" stroke-linejoin="round"/>
<path d="M32.3033 37.9003L26.1304 34.099C25.9368 33.9791 25.7799 33.8081 25.677 33.6049C25.5741 33.4018 25.5291 33.1741 25.5471 32.9471C25.565 32.72 25.6451 32.5023 25.7786 32.3178C25.9122 32.1333 26.0939 31.9891 26.304 31.9011L28.2492 31.0943C28.5529 30.9686 28.8941 30.9686 29.1978 31.0943L38.9714 35.1344L32.3033 37.9003Z" fill="white" stroke="#020064" stroke-width="0.75" stroke-linecap="round" stroke-linejoin="round"/>
<path d="M20.3497 42.8642C20.0754 42.9782 19.8575 43.1963 19.7439 43.4708C19.6303 43.7453 19.6302 44.0536 19.7437 44.3281L20.0793 45.1334C22.346 46.1884 24.8074 46.7606 27.307 46.8137C29.8067 46.8668 32.2902 46.3996 34.5997 45.4418L53.4709 37.6073C53.9058 37.4256 54.2859 37.1337 54.5736 36.7603C54.8613 36.387 55.0468 35.9451 55.1117 35.4782C55.1767 35.0113 55.1188 34.5356 54.9439 34.0979C54.769 33.6602 54.483 33.2757 54.1142 32.9821C53.0895 32.1636 51.865 31.6333 50.5669 31.4458C49.2689 31.2584 47.9444 31.4206 46.73 31.9157L26.3661 40.3656C26.1433 40.4578 25.8985 40.4831 25.6617 40.4383C25.4248 40.3936 25.2061 40.2808 25.0323 40.1137L21.8021 37.0021C21.6283 36.835 21.4096 36.7222 21.1727 36.6774C20.9358 36.6327 20.6911 36.658 20.4683 36.7502L19.3461 37.2152C19.0432 37.3415 18.8026 37.5827 18.6773 37.8861C18.5519 38.1894 18.5519 38.5301 18.6773 38.8334L20.3497 42.8642Z" stroke="#020064" stroke-width="0.75" stroke-linecap="round" stroke-linejoin="round"/>
<path d="M32.6965 51.9961C32.6447 52.218 32.6551 52.4499 32.7264 52.6663C32.7977 52.8827 32.9273 53.0753 33.1009 53.2228C33.2745 53.3704 33.4854 53.4673 33.7105 53.5029C33.9356 53.5384 34.1661 53.5113 34.3767 53.4244L36.3212 52.6169C36.6245 52.4907 36.8653 52.2493 36.9908 51.9457L42.2407 39.2419L34.9983 42.2482L32.6965 51.9961Z" fill="white" stroke="#020064" stroke-width="0.75" stroke-linecap="round" stroke-linejoin="round"/>
<path d="M49.4733 34.4857C49.0588 34.6551 48.6149 34.7413 48.1671 34.7392C47.7193 34.7372 47.2763 34.6469 46.8633 34.4736C46.4504 34.3003 46.0756 34.0474 45.7604 33.7292C45.4452 33.4111 45.1958 33.034 45.0264 32.6195L45.7045 32.3374L46.8205 31.8817C47.957 31.4365 49.1865 31.2813 50.398 31.4301C51.6095 31.5789 52.7649 32.0271 53.7598 32.7342L49.4733 34.4857Z" fill="white"/>
<path d="M49.4733 34.4857C49.0588 34.6551 48.6149 34.7413 48.1671 34.7392C47.7193 34.7372 47.2763 34.6469 46.8633 34.4736C46.4504 34.3003 46.0756 34.0474 45.7604 33.7292C45.4452 33.4111 45.1958 33.034 45.0264 32.6195L45.7045 32.3374L46.8205 31.8817C47.957 31.4365 49.1865 31.2813 50.398 31.4301C51.6095 31.5789 52.7649 32.0271 53.7598 32.7342L49.4733 34.4857Z" stroke="#020064" stroke-width="0.75" stroke-linecap="round" stroke-linejoin="round"/>
</g>
<defs>
<clipPath id="clip0_9882_215022">
<rect width="62" height="62" fill="white" transform="translate(0.5)"/>
</clipPath>
</defs>
</svg>
