<svg width="21" height="20" viewBox="0 0 21 20" fill="none" xmlns="http://www.w3.org/2000/svg">
<path d="M17.8261 10.5062C18.0296 10.3318 18.1313 10.2446 18.1686 10.1409C18.2013 10.0498 18.2013 9.9502 18.1686 9.85914C18.1313 9.75539 18.0296 9.6682 17.8261 9.49383L10.7672 3.44331C10.417 3.14315 10.2419 2.99306 10.0937 2.98939C9.96483 2.98619 9.84177 3.04279 9.76035 3.14269C9.66667 3.25764 9.66667 3.48825 9.66667 3.94948V7.52886C7.88777 7.84007 6.25966 8.74146 5.04976 10.0949C3.73069 11.5704 3.00103 13.48 3 15.4591V15.9691C3.87445 14.9157 4.96626 14.0638 6.20063 13.4716C7.28891 12.9495 8.46535 12.6403 9.66667 12.5588V16.0505C9.66667 16.5117 9.66667 16.7424 9.76035 16.8573C9.84177 16.9572 9.96483 17.0138 10.0937 17.0106C10.2419 17.0069 10.417 16.8569 10.7672 16.5567L17.8261 10.5062Z" stroke="#434F5A" stroke-width="1.66667" stroke-linecap="round" stroke-linejoin="round"/>
</svg>
