<svg width="25" height="25" viewBox="0 0 25 25" fill="none" xmlns="http://www.w3.org/2000/svg">
<g clip-path="url(#clip0_17_11759)">
<path d="M24.5 12.002C24.5 5.37453 19.1274 0.00195312 12.5 0.00195312C5.87258 0.00195312 0.5 5.37453 0.5 12.002C0.5 17.9914 4.8882 22.9559 10.625 23.8562V15.4707H7.57812V12.002H10.625V9.3582C10.625 6.3507 12.4166 4.68945 15.1576 4.68945C16.4701 4.68945 17.8438 4.92383 17.8438 4.92383V7.87695H16.3306C14.84 7.87695 14.375 8.80203 14.375 9.75195V12.002H17.7031L17.1711 15.4707H14.375V23.8562C20.1118 22.9559 24.5 17.9914 24.5 12.002Z" fill="white"/>
</g>
<defs>
<clipPath id="clip0_17_11759">
<rect width="24" height="24" fill="white" transform="translate(0.5 0.00195312)"/>
</clipPath>
</defs>
</svg>
