<svg width="25" height="25" viewBox="0 0 25 25" fill="none" xmlns="http://www.w3.org/2000/svg">
<g clip-path="url(#clip0_17_11766)">
<path d="M24.2609 7.20176C24.2609 7.20176 24.0266 5.54707 23.3047 4.82051C22.3906 3.86426 21.3688 3.85957 20.9 3.80332C17.5438 3.55957 12.5047 3.55957 12.5047 3.55957H12.4953C12.4953 3.55957 7.45625 3.55957 4.1 3.80332C3.63125 3.85957 2.60938 3.86426 1.69531 4.82051C0.973438 5.54707 0.74375 7.20176 0.74375 7.20176C0.74375 7.20176 0.5 9.14707 0.5 11.0877V12.9064C0.5 14.8471 0.739062 16.7924 0.739062 16.7924C0.739062 16.7924 0.973437 18.4471 1.69062 19.1736C2.60469 20.1299 3.80469 20.0971 4.33906 20.2002C6.26094 20.383 12.5 20.4393 12.5 20.4393C12.5 20.4393 17.5438 20.4299 20.9 20.1908C21.3688 20.1346 22.3906 20.1299 23.3047 19.1736C24.0266 18.4471 24.2609 16.7924 24.2609 16.7924C24.2609 16.7924 24.5 14.8518 24.5 12.9064V11.0877C24.5 9.14707 24.2609 7.20176 24.2609 7.20176ZM10.0203 15.1143V8.36895L16.5031 11.7533L10.0203 15.1143Z" fill="white"/>
</g>
<defs>
<clipPath id="clip0_17_11766">
<rect width="24" height="24" fill="white" transform="translate(0.5 0.00195312)"/>
</clipPath>
</defs>
</svg>
