<svg width="25" height="25" viewBox="0 0 25 25" fill="none" xmlns="http://www.w3.org/2000/svg">
<g clip-path="url(#clip0_1_22736)">
<path d="M8.05016 21.7517C17.1045 21.7517 22.0583 14.2484 22.0583 7.74357C22.0583 7.53263 22.0536 7.31701 22.0442 7.10607C23.0079 6.40917 23.8395 5.54596 24.5 4.55701C23.6025 4.95631 22.6496 5.21709 21.6739 5.33044C22.7013 4.71462 23.4705 3.74718 23.8391 2.60748C22.8726 3.18027 21.8156 3.58432 20.7134 3.80232C19.9708 3.01327 18.989 2.49083 17.9197 2.31576C16.8504 2.14069 15.7532 2.32276 14.7977 2.83381C13.8423 3.34485 13.0818 4.15641 12.6338 5.14302C12.1859 6.12963 12.0754 7.23632 12.3195 8.29201C10.3625 8.1938 8.44794 7.68541 6.69998 6.79981C4.95203 5.9142 3.40969 4.67115 2.17297 3.15123C1.5444 4.23495 1.35206 5.51735 1.63503 6.7378C1.918 7.95825 2.65506 9.02516 3.69641 9.72169C2.91463 9.69687 2.14998 9.48639 1.46563 9.10763V9.16857C1.46492 10.3059 1.8581 11.4083 2.57831 12.2885C3.29852 13.1687 4.30132 13.7723 5.41625 13.9967C4.69206 14.1948 3.93198 14.2237 3.19484 14.0811C3.50945 15.0591 4.12157 15.9146 4.94577 16.528C5.76997 17.1415 6.76512 17.4823 7.79234 17.5029C6.04842 18.8728 3.89417 19.6158 1.67656 19.6123C1.28329 19.6117 0.890399 19.5876 0.5 19.5401C2.75286 20.9855 5.37353 21.7531 8.05016 21.7517Z" fill="white"/>
</g>
<defs>
<clipPath id="clip0_1_22736">
<rect width="24" height="24" fill="white" transform="translate(0.5 0.00195312)"/>
</clipPath>
</defs>
</svg>
