<svg width="28" height="24" viewBox="0 0 28 24" fill="none" xmlns="http://www.w3.org/2000/svg">
<path d="M8.80544 23.3757C19.3715 23.3757 25.1507 14.6218 25.1507 7.03044C25.1507 6.7818 25.1507 6.53429 25.1339 6.28788C26.2582 5.47467 27.2287 4.46775 28 3.31428C26.9516 3.77909 25.8394 4.08376 24.7005 4.21812C25.8998 3.50026 26.7973 2.37104 27.2261 1.04068C26.0984 1.70989 24.8647 2.18148 23.5782 2.43508C22.7121 1.51409 21.5666 0.904232 20.3189 0.699882C19.0712 0.495533 17.791 0.708084 16.6763 1.30465C15.5616 1.90121 14.6746 2.84852 14.1525 3.99999C13.6305 5.15146 13.5025 6.44289 13.7883 7.67444C11.5044 7.55987 9.27005 6.96631 7.23036 5.93229C5.19068 4.89826 3.39122 3.44689 1.9488 1.67236C1.21418 2.93703 0.989184 4.43413 1.31962 5.85886C1.65005 7.28358 2.51107 8.52881 3.72736 9.341C2.8131 9.31422 1.91876 9.06758 1.12 8.62196V8.69476C1.12036 10.0211 1.57949 11.3065 2.41952 12.3329C3.25954 13.3593 4.42874 14.0635 5.7288 14.3261C4.88306 14.5568 3.99569 14.5905 3.13488 14.4247C3.50212 15.5661 4.21683 16.5642 5.17911 17.2794C6.14139 17.9947 7.30313 18.3914 8.50192 18.4141C7.31084 19.3503 5.94687 20.0425 4.48802 20.4511C3.02917 20.8597 1.50408 20.9766 0 20.7952C2.62714 22.4811 5.68391 23.3753 8.80544 23.3712" fill="#1DA1F2"/>
</svg>
