<svg width="24" height="24" viewBox="0 0 24 24" fill="none" xmlns="http://www.w3.org/2000/svg">
<path d="M11.625 16.3125H11.5781C11.6719 16.4062 11.8125 16.4531 12 16.4531C12.1406 16.4531 12.2812 16.4062 12.4219 16.3125L19.3594 9.42188C19.4531 9.32812 19.5 9.1875 19.5 9.04688C19.5 8.90625 19.4531 8.76562 19.3594 8.625L18.4219 7.6875C18.2812 7.59375 18.1406 7.54688 18 7.54688C17.8125 7.54688 17.7188 7.59375 17.625 7.6875L12 13.2656L6.375 7.6875C6.28125 7.59375 6.14062 7.54688 6 7.54688C5.8125 7.54688 5.67188 7.59375 5.57812 7.6875L4.64062 8.625C4.54688 8.76562 4.5 8.90625 4.5 9.04688C4.5 9.1875 4.54688 9.32812 4.6875 9.42188L11.625 16.3125Z" fill="#03305C"/>
</svg>
