<svg width="24" height="24" viewBox="0 0 24 24" fill="none" xmlns="http://www.w3.org/2000/svg">
<path d="M11.625 7.6875H11.5781C11.6719 7.59375 11.8125 7.54688 12 7.54688C12.1406 7.54688 12.2812 7.59375 12.4219 7.6875L19.3594 14.5781C19.4531 14.6719 19.5 14.8125 19.5 14.9531C19.5 15.0938 19.4531 15.2344 19.3594 15.375L18.4219 16.3125C18.2812 16.4062 18.1406 16.4531 18 16.4531C17.8125 16.4531 17.7188 16.4062 17.625 16.3125L12 10.7344L6.375 16.3125C6.28125 16.4062 6.14062 16.4531 6 16.4531C5.8125 16.4531 5.67188 16.4062 5.57812 16.3125L4.64062 15.375C4.54688 15.2344 4.5 15.0938 4.5 14.9531C4.5 14.8125 4.54688 14.6719 4.6875 14.5781L11.625 7.6875Z" fill="#03305C"/>
</svg>
