<svg width="20" height="21" viewBox="0 0 20 21" fill="none" xmlns="http://www.w3.org/2000/svg">
<path d="M13.2891 10.5L18.7578 15.9688C19.0859 16.2969 19.25 16.7344 19.25 17.1719C19.25 17.6641 19.0859 18.1016 18.7578 18.4297L17.5547 19.6328C17.1719 19.9609 16.7344 20.125 16.2969 20.125C15.8047 20.125 15.4219 19.9609 15.0938 19.6328L9.625 14.1641L4.15625 19.6328C3.82812 19.9609 3.39062 20.125 2.95312 20.125C2.46094 20.125 2.02344 19.9609 1.69531 19.6328L0.492188 18.4297C0.164062 18.1016 0 17.6641 0 17.1719C0 16.7344 0.164062 16.2969 0.492188 15.9688L5.96094 10.5L0.492188 5.03125C0.164062 4.70312 0 4.32031 0 3.82812C0 3.39062 0.164062 2.95312 0.492188 2.57031L1.69531 1.36719C2.02344 1.03906 2.46094 0.875 2.95312 0.875C3.39062 0.875 3.82812 1.03906 4.15625 1.36719L9.625 6.83594L15.0938 1.36719C15.4219 1.03906 15.8047 0.875 16.2969 0.875C16.7344 0.875 17.1719 1.03906 17.5547 1.36719L18.7578 2.57031C19.0859 2.95312 19.25 3.39062 19.25 3.82812C19.25 4.32031 19.0859 4.70312 18.7578 5.03125L13.2891 10.5Z" fill="#03305C"/>
</svg>
