<svg width="24" height="24" viewBox="0 0 24 24" fill="none" xmlns="http://www.w3.org/2000/svg">
<path d="M23.4476 21H9.55242C9.25496 21 9 20.5385 9 20C9 19.4615 9.25496 19 9.55242 19H23.4476C23.745 19 24 19.4615 24 20C24 20.5385 23.745 21 23.4476 21Z" fill="#0B5188"/>
<path d="M3.03538 20.7387H0.616562C0.284567 20.7387 0 20.3542 0 19.9058C0 19.3932 0.284567 19.0088 0.616562 19.0088H3.03538C3.36738 19.0088 3.65194 19.3932 3.65194 19.8417C3.69937 20.3542 3.4148 20.7387 3.03538 20.7387Z" fill="#0B5188"/>
<path d="M6.41889 23.8076C4.23182 23.8076 2.41968 21.9951 2.41968 19.8076C2.41968 17.5576 4.23182 15.8076 6.41889 15.8076C8.60596 15.8076 10.4181 17.6201 10.4181 19.8076C10.4806 21.9951 8.66845 23.8076 6.41889 23.8076ZM6.41889 17.4326C5.10665 17.4326 4.04436 18.4951 4.04436 19.8076C4.04436 21.1201 5.10665 22.1826 6.41889 22.1826C7.73114 22.1826 8.79343 21.1201 8.79343 19.8076C8.79343 18.4951 7.73114 17.4326 6.41889 17.4326Z" fill="#0B5188"/>
<path d="M23.3828 12.8034H19.304C18.9721 12.8034 18.6875 12.4187 18.6875 11.9698C18.6875 11.521 18.9721 11.1362 19.304 11.1362H23.3828C23.7148 11.1362 23.9994 11.521 23.9994 11.9698C23.9994 12.4187 23.7148 12.8034 23.3828 12.8034Z" fill="#0B5188"/>
<path d="M12.4686 13H0.531447C0.245283 13 0 12.5385 0 12C0 11.4615 0.245283 11 0.531447 11H12.4686C12.7547 11 13 11.4615 13 12C13 12.5385 12.7547 13 12.4686 13Z" fill="#0B5188"/>
<path d="M16 15.8721C13.8125 15.8721 12 14.0596 12 11.8721C12 9.68457 13.8125 7.87207 16 7.87207C18.1875 7.87207 20 9.68457 20 11.8721C20 14.0596 18.25 15.8721 16 15.8721ZM16 9.49707C14.6875 9.49707 13.625 10.5596 13.625 11.8721C13.625 13.1846 14.6875 14.2471 16 14.2471C17.3125 14.2471 18.375 13.1846 18.375 11.8721C18.375 10.5596 17.3125 9.49707 16 9.49707Z" fill="#0B5188"/>
<path d="M23.4844 5H10.5156C10.238 5 10 4.53846 10 4C10 3.46154 10.238 3 10.5156 3H23.4844C23.762 3 24 3.46154 24 4C24 4.53846 23.762 5 23.4844 5Z" fill="#0B5188"/>
<path d="M3.03538 4.93084H0.616562C0.284567 4.93084 0 4.54611 0 4.09725C0 3.6484 0.284567 3.26367 0.616562 3.26367H3.03538C3.36738 3.26367 3.65194 3.6484 3.65194 4.09725C3.65194 4.54611 3.4148 4.93084 3.03538 4.93084Z" fill="#0B5188"/>
<path d="M6.41968 8C4.23218 8 2.41968 6.1875 2.41968 4C2.41968 1.8125 4.23218 0 6.41968 0C8.60718 0 10.4197 1.8125 10.4197 4C10.4197 6.1875 8.66968 8 6.41968 8ZM6.41968 1.625C5.10718 1.625 4.04468 2.6875 4.04468 4C4.04468 5.3125 5.10718 6.375 6.41968 6.375C7.73218 6.375 8.79468 5.3125 8.79468 4C8.79468 2.6875 7.73218 1.625 6.41968 1.625Z" fill="#0B5188"/>
</svg>
